<svg width="167" height="50" viewBox="0 0 167 50" fill="none" xmlns="http://www.w3.org/2000/svg">
<path d="M28.5581 17.3116C29.8881 16.1252 31.3148 15.0356 32.4272 13.6555C33.2977 12.5901 33.9506 11.4036 34.5068 10.1446C34.8696 9.34553 35.0872 8.47386 35.1114 7.60219C35.1356 6.85159 34.9905 6.07677 34.7003 5.35038C34.4343 4.67241 34.0474 4.06708 33.5396 3.5344C33.0801 3.02592 32.5239 2.6143 31.8952 2.32374C31.3148 2.0574 30.6861 1.93633 30.0574 1.88791C29.743 1.86369 29.4528 1.91212 29.1626 2.00897C28.8483 2.08161 28.5339 2.17846 28.2921 2.34796C27.6634 2.78379 27.0588 3.29227 26.6477 3.92181C26.0432 4.86612 25.8497 6.00413 25.3903 7.02108C25.221 7.38428 24.9066 7.69905 24.5197 7.69905C24.1328 7.69905 23.8426 7.36006 23.6734 6.99687C23.2623 6.02834 23.1172 4.91454 22.561 4.01866C22.1257 3.34069 21.5212 2.75958 20.8199 2.32374C20.1912 1.93633 19.4415 1.74263 18.7161 1.66999C17.9664 1.59735 17.2168 1.71842 16.4913 1.93633C15.7659 2.17846 15.0888 2.54166 14.5084 3.02592C13.9281 3.51018 13.4202 4.11551 13.0817 4.79348C12.719 5.51987 12.5255 6.3189 12.5497 7.11793C12.5739 8.11067 12.719 9.12762 13.2268 9.97507C14.315 11.8395 15.8626 13.3891 17.3861 14.9388C19.5141 17.0937 21.8355 19.0308 23.8426 21.2826C24.157 21.6216 24.3504 22.0574 24.5197 22.4932C24.6164 22.7354 24.6648 22.9775 24.6648 23.2196L24.6164 23.5586L24.4472 23.5344C24.423 23.3407 24.423 23.147 24.3504 22.9533C24.2779 22.7112 24.157 22.4932 24.0119 22.2995C23.6492 21.7911 23.2381 21.3068 22.7786 20.8952C19.8526 18.2559 16.6364 15.8831 13.9764 12.9775C12.8882 11.7911 11.9935 10.3867 11.5099 8.83706C11.1955 7.82011 11.1955 6.70631 11.4131 5.66515C11.6066 4.72084 12.0419 3.82495 12.6222 3.05013C13.1784 2.29953 13.9281 1.66999 14.7502 1.18573C15.5724 0.701466 16.4672 0.386696 17.4102 0.265631C18.3533 0.120353 19.3448 0.168779 20.2637 0.435123C21.231 0.72568 22.1499 1.20994 22.8995 1.88791L23.9877 3.14699L24.5681 4.21236L25.1726 2.9775L26.2124 1.66999C26.7203 1.1373 27.3974 0.725679 28.0744 0.41091C28.5097 0.217205 28.9692 0.0961395 29.4286 0.0477134C30.1057 -0.0249258 30.807 -0.0249258 31.4841 0.120353C32.3788 0.33827 33.2494 0.701466 33.999 1.23415C34.7728 1.79105 35.4499 2.46902 35.9819 3.26805C36.5381 4.11551 36.9492 5.05982 37.1185 6.02834C37.3361 7.09372 37.3361 8.20752 37.0943 9.29711C36.8041 10.6046 36.2479 11.8395 35.5708 13.0017C34.7003 14.4787 33.6605 15.8589 32.4514 17.0695L30.0332 19.176C29.5254 19.5635 28.7999 19.4666 28.413 18.9581C27.9535 18.4254 28.0503 17.699 28.5581 17.3116Z" fill="#929292"/>
<path d="M17.3135 23.0016C16.1286 21.6699 15.0404 20.2413 13.662 19.1275C12.598 18.2558 11.4131 17.6021 10.1557 17.0452C9.35767 16.682 8.48712 16.4641 7.61658 16.4399C6.84276 16.4157 6.09312 16.5609 5.36766 16.8515C4.69057 17.1178 4.08602 17.5052 3.55402 18.0137C3.0462 18.4738 2.63511 19.0307 2.34493 19.6602C2.07893 20.2413 1.95802 20.8709 1.90966 21.5004C1.88547 21.8152 1.93384 22.1057 2.03056 22.3963C2.10311 22.7111 2.19984 23.0258 2.36911 23.268C2.80438 23.8975 3.3122 24.5028 3.94093 24.9144C4.88402 25.5198 6.02057 25.7135 7.03621 26.1735C7.39894 26.343 7.7133 26.6578 7.7133 27.0452C7.7133 27.4326 7.37476 27.7232 7.01203 27.8927C6.04475 28.3043 4.93239 28.4496 4.03766 29.0065C3.36057 29.4423 2.7802 30.0476 2.34493 30.7498C1.95802 31.3793 1.76456 32.1299 1.69202 32.8563C1.61947 33.6069 1.74038 34.3575 1.95802 35.0839C2.19984 35.8103 2.56257 36.4883 3.0462 37.0694C3.52984 37.6505 4.13439 38.159 4.81148 38.498C5.53693 38.8612 6.33494 39.0549 7.13294 39.0307C8.12439 39.0065 9.14003 38.8612 9.9864 38.3527C11.8484 37.2631 13.396 35.7135 14.9437 34.1881C17.0959 32.0573 19.0304 29.7328 21.2793 27.7232C21.6179 27.4084 22.0531 27.2147 22.4884 27.0452C22.7302 26.9483 22.9721 26.8999 23.2139 26.8999L23.5524 26.9483L23.5282 27.1178C23.3348 27.142 23.1413 27.142 22.9479 27.2147C22.7061 27.2873 22.4884 27.4084 22.295 27.5537C21.7871 27.9169 21.3035 28.3285 20.8924 28.7885C18.2566 31.7183 15.8868 34.9387 12.9608 37.6021C11.7759 38.6917 10.3733 39.5876 8.82567 40.0718C7.81003 40.3866 6.69766 40.3866 5.65784 40.1687C4.71475 39.975 3.82002 39.5391 3.0462 38.958C2.29657 38.4011 1.66784 37.6505 1.1842 36.8273C0.700562 36.004 0.386198 35.1082 0.265289 34.1638C0.120197 33.2195 0.168561 32.2268 0.434562 31.3067C0.724744 30.3382 1.20838 29.4181 1.88547 28.6675L3.14293 27.5779L4.20693 26.9968L2.97366 26.3914L1.66784 25.3987C1.13584 24.8902 0.724744 24.2123 0.41038 23.5343C0.216925 23.0985 0.0960156 22.6384 0.0476519 22.1784C-0.0248937 21.5004 -0.0248937 20.7982 0.120197 20.1203C0.337834 19.2244 0.724744 18.3769 1.25675 17.6263C1.81293 16.8515 2.49002 16.1735 3.28802 15.6408C4.13439 15.0839 5.07748 14.6723 6.04475 14.5028C7.10876 14.2849 8.22112 14.2849 9.30931 14.527C10.6151 14.8176 11.8484 15.3745 13.0091 16.0525C14.4842 16.9241 15.8626 17.9653 17.0717 19.1759L19.1755 21.5973C19.5624 22.1057 19.4657 22.8321 18.9579 23.2195C18.4259 23.6311 17.7004 23.5101 17.3135 23.0016Z" fill="#929292"/>
<path d="M24.5923 32.6383C23.2623 33.8247 21.8355 34.9143 20.7232 36.2945C19.8526 37.3598 19.1997 38.5705 18.6435 39.8054C18.2808 40.6044 18.0632 41.4761 18.039 42.3477C18.0148 43.0983 18.1599 43.8732 18.4501 44.5995C18.7161 45.2775 19.103 45.8828 19.6108 46.4155C20.0703 46.924 20.6264 47.3356 21.2552 47.6262C21.8355 47.8925 22.4643 48.0136 23.093 48.062C23.4074 48.0862 23.6975 48.0378 23.9877 47.9409C24.3021 47.8683 24.6165 47.7715 24.8583 47.602C25.487 47.1661 26.0915 46.6577 26.5026 46.0281C27.1072 45.0838 27.3006 43.9458 27.7601 42.9288C27.9294 42.5656 28.2437 42.2509 28.6306 42.2509C29.0176 42.2509 29.3077 42.5899 29.477 42.9531C29.8881 43.9216 30.0332 45.0354 30.6136 45.9313C31.0488 46.6092 31.6534 47.1903 32.3547 47.6262C32.9834 48.0136 33.733 48.2073 34.4585 48.2799C35.2081 48.3526 35.9577 48.2315 36.6832 48.0136C37.4087 47.7715 38.0857 47.4083 38.6661 46.924C39.2465 46.4397 39.7543 45.8344 40.0928 45.1564C40.4556 44.4301 40.649 43.631 40.6248 42.832C40.6007 41.8393 40.4556 40.8223 39.9478 39.9748C38.8596 38.1104 37.3119 36.5608 35.7885 35.0354C33.6605 32.8804 31.339 30.9434 29.3319 28.6916C29.0176 28.3526 28.8241 27.9167 28.6548 27.4809C28.5581 27.2388 28.5097 26.9966 28.5097 26.7545L28.5581 26.4155L28.7274 26.4397C28.7516 26.6334 28.7516 26.8271 28.8241 27.0209C28.8966 27.263 29.0176 27.4809 29.1626 27.6746C29.5254 28.1831 29.9365 28.6673 30.3959 29.079C33.3219 31.7182 36.5381 34.0911 39.1981 37.0209C40.2863 38.2073 41.181 39.6117 41.6647 41.1613C41.979 42.1782 41.979 43.292 41.7614 44.3332C41.5679 45.2775 41.1327 46.1734 40.5523 46.9482C39.9961 47.6988 39.2465 48.3284 38.4243 48.8126C37.6021 49.2969 36.7074 49.6116 35.7643 49.7327C34.8212 49.878 33.8297 49.8296 32.9108 49.5632C31.9436 49.2727 31.0246 48.7884 30.275 48.1104L29.1868 46.8514L28.6065 45.786L28.0019 47.0209L26.9621 48.3284C26.4543 48.861 25.7772 49.2727 25.1001 49.5874C24.6648 49.7811 24.2054 49.9022 23.7459 49.9506C23.0688 50.0233 22.3675 50.0233 21.6904 49.878C20.7957 49.6601 19.9252 49.2969 19.1755 48.7642C18.4017 48.2073 17.7246 47.5293 17.1926 46.7303C16.6364 45.8828 16.2253 44.9385 16.0561 43.97C15.8384 42.9046 15.8384 41.7908 16.0803 40.7012C16.3704 39.3937 16.9266 38.1589 17.6037 36.9966C18.4743 35.5196 19.5141 34.1395 20.7232 32.9288L23.1414 30.8223C23.6492 30.4349 24.3746 30.5318 24.7615 31.0402C25.221 31.5245 25.1001 32.2509 24.5923 32.6383Z" fill="#929292"/>
<path d="M35.861 26.9241C37.0459 28.2558 38.1341 29.6844 39.5125 30.7982C40.5765 31.6698 41.7614 32.3236 43.0188 32.8805C43.8168 33.2437 44.6874 33.4616 45.5579 33.4858C46.3076 33.51 47.0814 33.3647 47.8069 33.0742C48.4839 32.8078 49.0885 32.4204 49.6205 31.912C50.1283 31.4519 50.5394 30.895 50.8296 30.2655C51.0956 29.6844 51.2165 29.0548 51.2649 28.4253C51.289 28.1105 51.2407 27.82 51.144 27.5294C51.0714 27.2146 50.9747 26.8999 50.8054 26.6577C50.3701 26.0282 49.8623 25.4229 49.2336 25.0112C48.2905 24.4059 47.1539 24.2122 46.1383 23.7522C45.7756 23.5827 45.4612 23.2679 45.4612 22.8805C45.4612 22.4931 45.7998 22.2025 46.1625 22.033C47.1298 21.6214 48.2421 21.4761 49.1369 20.9192C49.8139 20.4834 50.3943 19.8781 50.8296 19.1759C51.2165 18.5463 51.41 17.7957 51.4825 17.0693C51.555 16.3187 51.4341 15.5681 51.2165 14.8417C50.9747 14.1153 50.6119 13.4374 50.1283 12.8563C49.6447 12.2752 49.0401 11.7667 48.363 11.4277C47.6376 11.0645 46.8396 10.8708 46.0416 10.895C45.0501 10.9192 44.0345 11.0645 43.1881 11.573C41.3261 12.6626 39.7785 14.2122 38.255 15.7376C36.1028 17.8684 34.1683 20.1928 31.9194 22.2025C31.5808 22.5173 31.1455 22.711 30.7103 22.8805C30.4685 22.9773 30.2266 23.0258 29.9848 23.0258L29.6463 22.9773L29.6705 22.8078C29.8639 22.7836 30.0574 22.7836 30.2508 22.711C30.4926 22.6384 30.7103 22.5173 30.9037 22.372C31.4115 22.0088 31.8952 21.5972 32.3063 21.1371C34.8937 18.1831 37.2636 14.987 40.1896 12.3236C41.3745 11.234 42.777 10.3381 44.3247 9.85385C45.3403 9.53908 46.4527 9.53908 47.4925 9.757C48.4356 9.9507 49.3303 10.3865 50.1041 10.9676C50.8538 11.5246 51.4825 12.2752 51.9661 13.0984C52.4498 13.9216 52.7641 14.8175 52.885 15.7618C53.0301 16.7061 52.9818 17.6989 52.7158 18.619C52.4256 19.5875 51.942 20.5076 51.2649 21.2582L50.0074 22.3478L48.9434 22.9289L50.1767 23.5342L51.4825 24.5754C52.0145 25.0839 52.4256 25.7618 52.74 26.4398C52.9334 26.8756 53.0543 27.3357 53.1027 27.7957C53.1752 28.4737 53.1752 29.1759 53.0301 29.8538C52.8125 30.7497 52.4498 31.6214 51.9178 32.372C51.3616 33.1468 50.6845 33.8248 49.8865 34.3575C49.0401 34.9144 48.097 35.326 47.1298 35.4955C46.0658 35.7134 44.9292 35.7134 43.8652 35.4713C42.5594 35.1807 41.3261 34.6238 40.1654 33.9459C38.6903 33.0742 37.3119 32.033 36.1028 30.8224L33.999 28.4011C33.6121 27.8926 33.7088 27.1662 34.2166 26.7788C34.7486 26.3187 35.4741 26.4156 35.861 26.9241Z" fill="#929292"/>
<path d="M45.8723 12.3237C39.0772 12.7595 38.4726 22.3721 32.8866 22.7595C36.8766 24.406 39.9477 32.251 46.5977 32.2026C53.0785 32.1542 47.4199 23.4859 42.8979 22.5658C49.6447 22.4205 53.417 11.8636 45.8723 12.3237Z" fill="#929292"/>
<path d="M13.9281 8.18352C14.5326 14.9632 24.157 15.3264 24.7132 20.8954C26.2608 16.8518 33.999 13.5588 33.7572 6.92444C33.5396 0.435334 25.0275 6.34332 24.2295 10.8954C23.8668 4.11572 13.2268 0.629039 13.9281 8.18352Z" fill="#929292"/>
<path d="M39.1981 41.2823C38.1341 34.5511 28.5097 34.8417 27.615 29.2969C26.3334 33.4373 18.837 37.2388 19.4899 43.8489C20.1428 50.3138 28.2437 43.8489 28.7274 39.2727C29.5495 45.9797 40.383 48.7642 39.1981 41.2823Z" fill="#929292"/>
<path d="M8.60804 36.8758C14.8711 36.0768 14.8712 27.118 20.0219 26.4158C16.2253 25.1083 12.8882 18.0381 6.74604 18.4739C0.724754 18.9097 6.5284 26.6095 10.7602 27.1906C4.47294 27.7475 1.61948 37.7717 8.60804 36.8758Z" fill="#929292"/>
<path d="M76.1964 21.6214L76.6558 23.4858C75.4951 24.0669 73.8991 24.3575 71.8678 24.3817C69.2078 24.3817 67.0798 23.6069 65.4354 22.033C63.8153 20.4592 62.9931 18.3284 62.9689 15.6408C62.9689 12.9773 63.8153 10.7982 65.5322 9.10324C67.2491 7.40832 69.498 6.53665 72.3031 6.53665C74.0684 6.53665 75.5193 6.77878 76.6316 7.31147L76.0755 9.2243C74.9631 8.74004 73.754 8.49791 72.424 8.49791C70.2718 8.49791 68.5791 9.12745 67.3458 10.4107C66.0884 11.6698 65.4838 13.389 65.4838 15.5681C65.4838 17.6262 66.0883 19.2969 67.2974 20.5318C68.5065 21.7667 70.1751 22.372 72.3273 22.372C73.8507 22.372 75.1324 22.1299 76.1964 21.6214ZM79.4851 24.0911L79.4126 5.83447H81.7824L81.8549 24.0911H79.4851ZM88.0455 24.0427H85.6757L85.6273 11.6456H87.9971L88.0455 24.0427ZM87.9004 6.39137H90.4879L87.32 10.1202H85.6273L87.9004 6.39137ZM91.8662 24.0427L91.842 15.0354C91.842 13.6553 91.7937 12.5173 91.7211 11.6214H93.825L94.0426 13.7279C94.4295 13.0015 95.0099 12.4204 95.7595 11.9846C96.5091 11.5488 97.3555 11.3308 98.2502 11.3308C99.5561 11.3308 100.62 11.7909 101.491 12.6868C102.361 13.6069 102.796 14.9386 102.796 16.7061L102.821 23.9943H100.451L100.427 16.9725C100.427 15.8103 100.161 14.8902 99.6528 14.2606C99.145 13.6069 98.4195 13.2921 97.4522 13.2921C96.6059 13.2921 95.8562 13.6069 95.1791 14.2606C94.5262 14.9144 94.1877 15.6892 94.2119 16.6093L94.2361 24.0185L91.8662 24.0427ZM108.939 23.9701H106.569L106.52 11.573H108.89L108.939 23.9701ZM109.205 7.79573C109.205 8.23157 109.06 8.57055 108.794 8.88532C108.503 9.17588 108.141 9.32115 107.681 9.32115C107.246 9.32115 106.883 9.17588 106.593 8.88532C106.303 8.59476 106.158 8.23157 106.158 7.81994C106.158 7.40832 106.303 7.04513 106.593 6.75457C106.883 6.46401 107.246 6.31873 107.705 6.31873C108.141 6.31873 108.503 6.46401 108.794 6.73036C109.06 7.04513 109.205 7.38411 109.205 7.79573ZM121.513 21.694L121.9 23.4858C120.86 23.9943 119.627 24.2364 118.2 24.2364C116.29 24.2364 114.742 23.6553 113.557 22.4931C112.372 21.3308 111.792 19.8054 111.768 17.9168C111.768 15.9555 112.397 14.3575 113.654 13.1226C114.912 11.8877 116.58 11.2582 118.636 11.2582C119.893 11.2582 120.981 11.4761 121.924 11.9362L121.416 13.7521C120.618 13.3405 119.724 13.1468 118.684 13.1468C117.33 13.1468 116.242 13.5827 115.444 14.4543C114.621 15.326 114.234 16.4156 114.234 17.7715C114.234 19.1759 114.646 20.2655 115.492 21.0887C116.314 21.912 117.378 22.3236 118.66 22.3236C119.627 22.2994 120.594 22.1057 121.513 21.694ZM133.677 16.3914L133.701 20.9192C133.701 22.1541 133.773 23.1468 133.919 23.8974H131.742L131.452 22.2994C130.533 23.5584 129.227 24.188 127.535 24.188C126.35 24.188 125.406 23.849 124.705 23.1468C124.004 22.4446 123.641 21.6214 123.641 20.6287C123.641 19.1274 124.294 17.9652 125.6 17.1662C126.906 16.3672 128.816 15.9555 131.307 15.9555V15.7134C131.307 14.8417 131.065 14.1396 130.581 13.6553C130.098 13.171 129.372 12.9289 128.429 12.9289C127.172 12.9289 126.035 13.2437 125.044 13.8974L124.512 12.3236C125.697 11.573 127.123 11.1856 128.792 11.1856C130.412 11.1856 131.621 11.6214 132.443 12.5173C133.266 13.4374 133.677 14.7207 133.677 16.3914ZM131.379 19.6844V17.6262C129.372 17.6262 127.994 17.8684 127.22 18.3526C126.446 18.8369 126.059 19.4906 126.059 20.3381C126.059 20.9919 126.253 21.5003 126.64 21.8877C127.027 22.2509 127.534 22.4446 128.187 22.4446C129.082 22.4446 129.856 22.1541 130.461 21.5972C131.065 21.0161 131.379 20.3865 131.379 19.6844Z" fill="#929292"/>
<path d="M77.0669 36.0039C77.0669 38.4737 76.3898 40.4349 75.0115 41.9119C73.6331 43.3889 71.8436 44.1153 69.6673 44.1395C67.5393 44.1395 65.7982 43.4374 64.444 41.9846C63.0898 40.5318 62.4127 38.6916 62.4127 36.3913C62.4127 33.9943 63.0898 32.0572 64.4924 30.5318C65.8949 29.0306 67.6602 28.28 69.8124 28.2557C71.9646 28.2315 73.7057 28.9579 75.0598 30.4107C76.3898 31.8393 77.0669 33.7279 77.0669 36.0039ZM64.6133 36.2945C64.6133 38.0136 65.0969 39.4664 66.04 40.6529C66.9831 41.8393 68.2164 42.4204 69.6915 42.4204C71.2391 42.4204 72.4724 41.8151 73.4155 40.6529C74.3586 39.4664 74.818 37.9652 74.818 36.125C74.818 34.4059 74.3344 32.9531 73.4155 31.7666C72.4966 30.5802 71.2391 29.9749 69.7156 29.9991C68.1438 29.9991 66.9105 30.6044 65.9916 31.7909C65.0485 32.9531 64.5891 34.4543 64.6133 36.2945ZM79.6302 40.9434L79.5818 27.602H81.734L81.7582 34.5996C82.5562 33.2194 83.862 32.5415 85.6515 32.5415C87.054 32.5415 88.2148 33.0499 89.1337 34.0911C90.0284 35.1323 90.4879 36.4882 90.512 38.1347C90.512 39.9265 90.0284 41.3792 89.037 42.4446C88.0455 43.5342 86.8364 44.0669 85.3855 44.0669C83.6686 44.0669 82.3628 43.3889 81.4922 42.0088L81.3955 43.8248H79.5577C79.6302 43.1226 79.6544 42.1783 79.6302 40.9434ZM81.7582 37.5052V39.2969C81.7582 40.1202 82.0726 40.8223 82.6771 41.4519C83.2817 42.0572 84.0555 42.372 84.9502 42.372C86.0142 42.372 86.8364 41.9846 87.4651 41.234C88.0697 40.4834 88.384 39.4664 88.384 38.2073C88.384 37.0209 88.0697 36.0524 87.441 35.3018C86.8122 34.5512 85.99 34.1637 84.9744 34.188C84.0555 34.188 83.3059 34.5269 82.6771 35.1807C82.0484 35.8587 81.734 36.6335 81.7582 37.5052ZM102.289 38.6674L94.3086 38.6916C94.3328 39.878 94.7197 40.7981 95.421 41.4277C96.1222 42.0572 97.0412 42.372 98.1777 42.372C99.411 42.372 100.475 42.1783 101.394 41.7909L101.757 43.2679C100.668 43.7521 99.3868 43.9943 97.9117 44.0185C96.1948 44.0185 94.8406 43.51 93.8008 42.5173C92.7851 41.5003 92.2773 40.1444 92.2531 38.4737C92.2531 36.7788 92.7368 35.3744 93.7041 34.2364C94.6713 33.0984 95.9772 32.5173 97.6215 32.5173C99.145 32.5173 100.306 33.0015 101.128 34.0185C101.95 35.0354 102.361 36.2703 102.361 37.7473C102.337 38.1347 102.313 38.4495 102.289 38.6674ZM94.3086 37.1662L100.306 37.142C100.306 36.1976 100.064 35.4228 99.5561 34.8417C99.0724 34.2606 98.3712 33.97 97.4522 33.97C96.6059 33.97 95.8804 34.2606 95.3242 34.8417C94.7681 35.447 94.4295 36.2219 94.3086 37.1662ZM104.126 43.2194L104.61 41.5972C105.505 42.1299 106.424 42.4204 107.391 42.3962C108.068 42.3962 108.6 42.2509 108.963 41.9604C109.326 41.6698 109.519 41.2824 109.519 40.7981C109.519 40.3381 109.374 39.9507 109.06 39.6601C108.745 39.3696 108.213 39.1032 107.439 38.8369C105.408 38.1589 104.417 37.1177 104.392 35.7134C104.392 34.7933 104.755 34.0185 105.456 33.3647C106.182 32.7352 107.125 32.4204 108.31 32.4204C109.422 32.4204 110.365 32.6383 111.139 33.0984L110.631 34.6238C109.858 34.188 109.084 33.97 108.262 33.97C107.705 33.97 107.246 34.1153 106.932 34.3817C106.617 34.6722 106.448 35.0112 106.448 35.447C106.448 35.8344 106.593 36.1492 106.859 36.4156C107.125 36.6819 107.705 36.9725 108.576 37.2872C109.64 37.6746 110.414 38.1105 110.873 38.619C111.333 39.1274 111.574 39.7812 111.574 40.5802C111.574 41.573 111.212 42.3962 110.438 43.0015C109.688 43.6311 108.648 43.9216 107.318 43.9458C106.158 43.9943 105.094 43.7279 104.126 43.2194ZM116.387 43.7037H114.259L114.21 32.6867H116.338L116.387 43.7037ZM116.628 29.3211C116.628 29.7085 116.508 30.0233 116.266 30.2896C116.024 30.556 115.685 30.6771 115.274 30.6771C114.887 30.6771 114.549 30.556 114.307 30.2896C114.065 30.0233 113.92 29.7085 113.92 29.3453C113.92 28.9821 114.041 28.6674 114.307 28.401C114.549 28.1347 114.887 28.0136 115.298 28.0136C115.685 28.0136 116 28.1347 116.266 28.401C116.508 28.6432 116.628 28.9579 116.628 29.3211ZM127.51 27.4567H129.638L129.687 40.7981C129.687 42.033 129.735 43.0015 129.783 43.6795H127.897L127.728 41.7182C127.365 42.4204 126.833 42.9531 126.156 43.3647C125.479 43.7521 124.705 43.9458 123.835 43.9458C122.432 43.9458 121.271 43.4374 120.328 42.372C119.385 41.3308 118.926 39.9991 118.926 38.3768C118.926 36.6335 119.409 35.1807 120.377 34.0911C121.344 32.9773 122.577 32.4204 124.004 32.4204C124.778 32.4204 125.479 32.5657 126.084 32.8804C126.688 33.1952 127.172 33.5826 127.51 34.1153V27.4567ZM127.535 38.9337V37.1904C127.535 36.2461 127.22 35.4955 126.616 34.9386C126.011 34.3817 125.286 34.0911 124.439 34.0911C123.424 34.0911 122.601 34.4785 121.973 35.2533C121.344 36.0282 121.03 37.0209 121.054 38.2558C121.054 39.418 121.368 40.3623 121.948 41.1129C122.553 41.8635 123.375 42.2509 124.439 42.2509C125.261 42.2509 125.963 41.9361 126.616 41.355C127.22 40.7255 127.535 39.9265 127.535 38.9337ZM141.125 36.9482L141.149 40.9918C141.149 42.0814 141.221 42.9773 141.342 43.6311H139.408L139.142 42.2267C138.32 43.3405 137.159 43.8974 135.66 43.8974C134.62 43.8974 133.773 43.5826 133.145 42.9773C132.516 42.372 132.202 41.6214 132.202 40.7497C132.202 39.418 132.782 38.401 133.943 37.6746C135.103 36.9725 136.796 36.6093 139.021 36.6093V36.4156C139.021 35.6407 138.803 35.0112 138.368 34.5754C137.933 34.1395 137.304 33.9216 136.458 33.9216C135.345 33.9216 134.33 34.2122 133.459 34.7691L132.975 33.3889C134.039 32.711 135.297 32.372 136.772 32.372C138.199 32.372 139.287 32.7594 140.037 33.5342C140.738 34.309 141.101 35.447 141.125 36.9482ZM139.045 39.878V38.0621C137.28 38.0621 136.047 38.28 135.345 38.7158C134.668 39.1516 134.305 39.7328 134.305 40.4834C134.305 41.0645 134.475 41.5245 134.837 41.8635C135.176 42.2025 135.635 42.3478 136.216 42.3478C137.014 42.3478 137.691 42.0814 138.247 41.5972C138.779 41.0645 139.069 40.5076 139.045 39.878ZM152.176 27.3599H154.304L154.352 40.7013C154.352 41.9361 154.401 42.9047 154.449 43.5826H152.563L152.393 41.6214C152.031 42.3236 151.499 42.8562 150.822 43.2679C150.145 43.6553 149.371 43.849 148.5 43.849C147.098 43.849 145.937 43.3405 144.994 42.2751C144.051 41.234 143.591 39.9022 143.591 38.28C143.591 36.5366 144.075 35.0838 145.042 33.9943C146.009 32.9047 147.243 32.3235 148.669 32.3235C149.443 32.3235 150.145 32.4688 150.749 32.7836C151.354 33.0742 151.837 33.4858 152.176 34.0185V27.3599ZM152.2 38.8369V37.0935C152.2 36.1492 151.886 35.3986 151.281 34.8417C150.677 34.2606 149.951 33.9943 149.105 33.9943C148.089 33.9943 147.267 34.3817 146.638 35.1565C146.009 35.9313 145.695 36.924 145.719 38.1589C145.719 39.3211 146.034 40.2654 146.614 41.0161C147.219 41.7667 148.041 42.1541 149.105 42.1541C149.927 42.1541 150.628 41.8393 151.281 41.2582C151.91 40.6286 152.2 39.8296 152.2 38.8369ZM166.927 38.4495L158.947 38.4737C158.971 39.6601 159.358 40.5802 160.059 41.2098C160.76 41.8393 161.679 42.1541 162.816 42.1541C164.049 42.1541 165.113 41.9604 166.032 41.573L166.395 43.0499C165.307 43.5342 164.025 43.7763 162.55 43.8006C160.833 43.8006 159.479 43.2921 158.439 42.2993C157.423 41.2824 156.915 39.9265 156.891 38.2558C156.891 36.5608 157.375 35.1565 158.342 34.0185C159.309 32.8805 160.615 32.2993 162.26 32.2993C163.783 32.2993 164.944 32.7836 165.766 33.8005C166.588 34.8175 166.999 36.0524 166.999 37.5294C166.999 37.9168 166.975 38.2315 166.927 38.4495ZM158.971 36.9482L164.968 36.924C164.968 35.9797 164.726 35.2049 164.218 34.6238C163.735 34.0427 163.033 33.7521 162.115 33.7521C161.268 33.7521 160.543 34.0427 159.987 34.6238C159.43 35.2291 159.092 36.0039 158.971 36.9482Z" fill="#929292"/>
<path d="M151.16 6.36719H153.53L153.578 21.3551C153.578 22.7352 153.627 23.8248 153.699 24.5996H151.571L151.378 22.3962C150.967 23.1953 150.386 23.8006 149.613 24.2364C148.839 24.6723 147.968 24.8902 147.001 24.8902C145.429 24.8902 144.123 24.3091 143.059 23.1226C141.995 21.9362 141.487 20.435 141.463 18.619C141.463 16.6335 141.995 15.0355 143.108 13.7764C144.22 12.5173 145.574 11.912 147.194 11.8878C148.065 11.8878 148.839 12.0573 149.54 12.3962C150.217 12.7352 150.773 13.1953 151.16 13.7764V6.36719ZM151.209 19.2728V17.2873C151.209 16.2461 150.87 15.3987 150.193 14.7449C149.516 14.0912 148.694 13.7764 147.751 13.7764C146.59 13.7764 145.671 14.2122 144.97 15.0839C144.268 15.9556 143.93 17.0694 143.93 18.4495C143.93 19.757 144.268 20.8224 144.945 21.6699C145.623 22.5173 146.541 22.9531 147.751 22.9531C148.669 22.9531 149.467 22.6142 150.193 21.9362C150.846 21.2824 151.209 20.3866 151.209 19.2728ZM166.467 17.0452L166.491 21.573C166.491 22.8079 166.564 23.8006 166.709 24.5512H164.533L164.243 22.9531C163.324 24.2122 162.018 24.8418 160.325 24.8418C159.14 24.8418 158.197 24.5028 157.496 23.8006C156.795 23.0984 156.432 22.2752 156.432 21.2824C156.432 19.7812 157.085 18.619 158.366 17.82C159.672 17.0209 161.583 16.6093 164.073 16.6093V16.3672C164.073 15.4955 163.831 14.7933 163.348 14.3091C162.864 13.8248 162.139 13.5827 161.196 13.5827C159.938 13.5827 158.802 13.8975 157.81 14.5512L157.278 13.0016C158.463 12.251 159.89 11.8636 161.558 11.8636C163.179 11.8636 164.388 12.2994 165.21 13.1953C166.056 14.0912 166.467 15.3745 166.467 17.0452ZM164.146 20.3381V18.28C162.139 18.28 160.76 18.5222 159.987 19.0064C159.213 19.4907 158.826 20.1444 158.826 20.9919C158.826 21.6456 159.019 22.1541 159.406 22.5415C159.793 22.9047 160.301 23.0984 160.954 23.0984C161.849 23.0984 162.622 22.8079 163.227 22.251C163.856 21.6699 164.17 21.0403 164.146 20.3381Z" fill="#929292"/>
</svg>
