<?xml version="1.0" standalone="no"?>
<!DOCTYPE svg PUBLIC "-//W3C//DTD SVG 20010904//EN"
 "http://www.w3.org/TR/2001/REC-SVG-20010904/DTD/svg10.dtd">
<svg version="1.0" xmlns="http://www.w3.org/2000/svg"
 width="638.000000pt" height="638.000000pt" viewBox="0 0 638.000000 638.000000"
 preserveAspectRatio="xMidYMid meet">
<metadata>
Created by potrace 1.11, written by Peter Selinger 2001-2013
</metadata>
<g transform="translate(0.000000,638.000000) scale(0.100000,-0.100000)"
fill="#000000" stroke="none">
<path d="M3490 6179 c-201 -36 -403 -204 -510 -425 l-33 -66 -32 61 c-33 61
-118 168 -179 225 -85 78 -223 147 -349 175 -201 44 -419 11 -601 -92 -232
-131 -383 -336 -424 -579 -10 -58 -9 -232 1 -287 18 -94 102 -280 173 -383
131 -190 357 -412 779 -768 477 -401 593 -521 611 -629 13 -73 34 -69 30 7 -6
136 -96 248 -519 644 -252 235 -564 552 -657 667 -19 23 -45 55 -58 69 -32 38
-125 179 -150 227 -43 86 -64 194 -63 333 1 96 15 149 63 252 33 69 56 99 127
170 97 96 176 143 307 183 107 32 272 32 375 -1 131 -43 274 -161 335 -277 18
-33 46 -105 64 -160 17 -55 41 -123 51 -151 57 -146 172 -143 229 5 12 31 26
65 30 76 4 11 20 56 35 100 46 138 102 220 207 303 81 63 99 72 182 92 57 14
80 14 145 5 146 -23 253 -77 353 -181 74 -76 122 -153 159 -253 28 -75 33
-101 35 -201 5 -167 -17 -249 -119 -455 -133 -268 -244 -395 -638 -730 -90
-76 -98 -163 -24 -235 33 -32 41 -35 94 -35 55 0 61 3 117 50 32 27 61 52 64
55 3 3 52 47 110 97 384 333 658 830 664 1203 2 71 -21 226 -42 297 -55 178
-203 375 -362 483 -76 52 -196 104 -286 125 -69 16 -218 18 -294 4z"/>
<path d="M1940 5709 c-93 -26 -168 -83 -214 -162 -84 -143 -76 -416 19 -613
94 -196 247 -336 630 -580 77 -49 145 -92 150 -96 6 -5 38 -28 73 -53 112 -81
210 -174 263 -251 41 -60 85 -159 94 -211 7 -47 20 -55 31 -20 11 37 87 149
151 223 33 38 136 143 227 234 317 313 399 403 489 538 109 164 158 288 192
477 3 17 5 77 5 135 0 243 -86 368 -259 374 -153 5 -385 -118 -572 -303 -135
-134 -195 -222 -291 -423 -4 -10 -8 -30 -9 -45 l-1 -28 -8 25 c-4 14 -16 59
-25 100 -71 312 -363 596 -696 676 -45 11 -214 13 -249 3z"/>
<path d="M5430 5033 c-154 -21 -370 -125 -540 -261 -68 -54 -344 -331 -440
-441 -36 -41 -81 -93 -101 -115 -19 -23 -107 -126 -194 -231 -87 -104 -181
-217 -209 -250 -145 -169 -274 -271 -355 -277 -31 -2 -44 -27 -16 -29 8 -1 21
-2 28 -3 22 -4 111 25 162 52 52 28 351 320 598 584 474 507 760 743 962 794
46 12 141 24 195 25 280 4 526 -183 624 -473 22 -68 27 -94 31 -183 8 -175
-49 -327 -169 -450 -88 -89 -147 -123 -301 -170 -66 -21 -143 -49 -170 -62
-52 -25 -86 -68 -80 -100 2 -10 4 -24 4 -30 2 -27 66 -73 139 -99 271 -96 332
-129 419 -224 102 -114 128 -176 127 -310 -1 -71 -6 -111 -23 -160 -94 -272
-370 -456 -664 -444 -124 4 -220 34 -392 119 -247 123 -402 249 -621 505 -54
63 -119 136 -146 163 -43 42 -53 47 -94 47 -107 0 -178 -94 -144 -189 11 -30
241 -305 310 -369 225 -212 535 -408 760 -482 233 -77 469 -77 675 1 211 80
412 267 503 469 51 113 71 214 67 340 -5 166 -51 290 -152 413 -54 65 -183
164 -270 208 -83 42 -84 32 9 84 20 11 47 29 60 40 13 11 49 42 82 70 262 222
328 648 153 985 -118 228 -318 386 -555 441 -47 11 -224 19 -272 12z"/>
<path d="M5475 4709 c-138 -13 -316 -84 -420 -169 -115 -94 -264 -273 -415
-500 -87 -131 -219 -306 -270 -358 -113 -117 -235 -188 -359 -213 l-64 -12 49
-25 c111 -56 254 -184 460 -411 288 -318 456 -466 645 -569 163 -89 306 -126
490 -125 293 1 410 151 325 418 -81 256 -353 559 -612 682 -50 23 -99 43 -109
43 -10 0 -16 2 -13 5 6 6 19 9 92 20 57 8 173 47 231 79 67 35 185 126 243
185 30 31 81 95 113 143 175 265 190 553 37 700 -93 89 -232 124 -423 107z"/>
<path d="M720 4450 c-272 -55 -507 -235 -634 -483 -71 -139 -81 -183 -81 -342
0 -119 4 -150 23 -205 25 -75 96 -200 139 -245 48 -51 195 -158 261 -189 34
-16 62 -32 62 -35 0 -3 -24 -19 -53 -35 -62 -35 -206 -154 -246 -205 -54 -68
-131 -224 -146 -298 -17 -80 -20 -106 -20 -193 0 -155 18 -242 75 -366 118
-257 323 -428 579 -484 126 -28 288 -22 396 15 105 36 215 92 313 159 106 72
121 85 298 261 185 185 226 229 463 510 79 94 164 195 190 225 224 265 345
372 442 388 60 10 47 27 -21 26 -100 -1 -172 -49 -367 -242 -92 -92 -222 -226
-288 -297 -206 -223 -522 -535 -654 -645 -135 -113 -312 -222 -381 -235 -14
-3 -47 -9 -75 -15 -102 -21 -269 -12 -340 19 -112 48 -165 82 -235 151 -270
265 -290 673 -45 924 83 85 149 122 322 178 200 65 252 107 223 184 -20 52
-54 72 -224 130 -155 53 -235 97 -305 167 -120 121 -169 231 -157 355 24 260
190 462 454 553 195 67 388 38 652 -98 221 -113 383 -246 579 -473 177 -205
192 -219 232 -230 67 -18 123 4 159 63 22 35 26 97 9 128 -11 22 -186 227
-254 299 -260 275 -675 528 -945 577 -14 2 -41 8 -61 12 -64 14 -249 9 -339
-9z"/>
<path d="M775 3973 c-88 -11 -186 -54 -227 -100 -41 -45 -60 -145 -44 -223 12
-57 61 -160 114 -240 136 -206 428 -434 595 -465 20 -4 37 -11 37 -15 0 -4
-28 -13 -62 -20 -72 -14 -183 -62 -261 -114 -139 -92 -275 -266 -336 -431 -23
-61 -26 -70 -40 -141 -8 -42 -6 -171 3 -213 16 -71 81 -159 146 -198 163 -98
470 -62 663 78 148 107 239 224 445 570 166 278 260 397 376 472 59 39 146 77
175 77 38 0 30 17 -20 39 -103 47 -201 126 -449 360 -207 196 -246 231 -329
294 -42 32 -83 64 -91 70 -14 12 -78 49 -160 94 -74 41 -179 76 -290 98 -33 7
-207 12 -245 8z"/>
<path d="M3423 3005 c-11 -30 6 -99 43 -173 33 -67 60 -99 243 -281 113 -114
275 -271 360 -351 447 -420 692 -705 761 -888 36 -95 52 -264 36 -371 -54
-336 -431 -596 -779 -535 -104 18 -176 48 -250 104 -135 102 -185 180 -257
406 -50 153 -77 193 -135 201 -31 4 -46 0 -68 -17 -36 -28 -50 -57 -99 -198
-22 -64 -53 -144 -69 -178 -55 -113 -193 -240 -304 -279 -30 -11 -78 -18 -120
-18 -306 2 -570 254 -613 586 -20 153 12 297 109 489 133 265 249 405 550 664
127 110 158 141 167 172 14 46 10 72 -18 117 -34 54 -112 80 -172 56 -13 -5
-52 -35 -88 -67 -36 -31 -92 -80 -125 -108 -137 -117 -248 -238 -353 -385
-175 -246 -276 -459 -319 -671 -14 -73 -19 -254 -7 -315 40 -220 121 -380 262
-522 127 -126 290 -215 449 -243 97 -18 251 -9 333 19 77 27 187 90 243 140
60 54 160 188 197 264 l33 68 36 -65 c65 -117 174 -231 281 -296 143 -86 280
-121 450 -115 368 14 685 246 791 578 79 247 37 493 -129 752 -122 191 -400
468 -817 815 -49 41 -92 77 -95 80 -3 3 -34 30 -70 60 -36 30 -70 60 -76 65
-6 6 -44 39 -85 75 -163 143 -253 257 -265 337 -6 44 -20 56 -31 28z"/>
<path d="M3291 2619 c-21 -50 -87 -167 -100 -179 -4 -3 -26 -32 -51 -65 -24
-33 -99 -120 -165 -194 -414 -461 -528 -627 -600 -876 -35 -120 -44 -190 -40
-310 5 -164 44 -277 118 -340 51 -44 104 -59 184 -52 296 28 718 452 798 801
l12 51 12 -54 c66 -303 345 -587 661 -672 19 -5 44 -12 55 -15 11 -3 67 -7
125 -9 162 -6 263 35 340 137 65 87 86 201 67 373 -19 176 -115 359 -261 495
-86 81 -143 123 -336 241 -8 5 -94 52 -190 105 -271 150 -419 261 -504 377
-34 47 -75 136 -90 195 l-12 46 -23 -55z"/>
</g>
</svg>
