<svg width="67" height="67" viewBox="0 0 67 67" fill="none" xmlns="http://www.w3.org/2000/svg">
<circle cx="33.5" cy="33.5" r="32.5" stroke="white" stroke-width="2"/>
<path d="M34.25 42.5C33.905 42.5 33.625 42.78 33.625 43.125C33.625 43.47 33.905 43.75 34.25 43.75C34.595 43.75 34.875 43.47 34.875 43.125C34.875 42.78 34.595 42.5 34.25 42.5Z" fill="white"/>
<path d="M47.125 46.25H47.097C48.2476 45.3176 49 43.9578 49 42.5C49 40.3886 47.6638 38.4947 45.6751 37.7874C45.6724 37.7864 45.6698 37.7855 45.6671 37.7846L40.3246 35.9656L42.2894 25.875H43C44.7231 25.875 46.125 24.4731 46.125 22.75V19.875C46.125 18.8411 45.2839 18 44.25 18C43.2141 18 42.375 18.8391 42.375 19.875V22.125H39.25C38.2161 22.125 37.375 22.9661 37.375 24C37.375 24.7609 37.8388 25.4238 38.4984 25.7158L36.7436 34.7464L27.8429 31.716C27.3199 31.5301 26.7777 31.3998 26.2265 31.3252L25.1329 27.125H27.1831C27.8018 27.125 28.3836 26.884 28.8213 26.4464C29.259 26.0087 29.5 25.4269 29.5 24.8081C29.5 23.6714 28.6859 22.7103 27.564 22.5229C19.945 21.2671 20.3446 21.2881 19.9131 21.2881C18.3068 21.2881 17 22.5975 17 24.2069C17 25.8159 18.3091 27.125 19.9181 27.125H21.246L22.4418 31.7044C19.2085 32.8326 17 35.9023 17 39.375C17 42.2419 18.5005 44.8008 20.7931 46.25H18.875C17.8391 46.25 17 47.089 17 48.125C17 49.1589 17.8411 50 18.875 50H47.125C48.1609 50 49 49.1609 49 48.125C49 47.0911 48.1589 46.25 47.125 46.25ZM39.25 23.375H43C43.3451 23.375 43.625 23.0951 43.625 22.75V19.875C43.625 19.5301 43.9049 19.25 44.25 19.25C44.5946 19.25 44.875 19.5304 44.875 19.875V22.75C44.875 23.7839 44.0339 24.625 43 24.625C42.2619 24.625 40.0503 24.625 39.2759 24.625C39.2559 24.6234 39.2361 24.6228 39.2164 24.6231C38.8884 24.6059 38.625 24.3311 38.625 24C38.625 23.6554 38.9054 23.375 39.25 23.375ZM39.7407 25.875H41.0159L39.1304 35.559L37.9379 35.153L39.7407 25.875ZM19.9181 25.875C18.9983 25.875 18.25 25.1266 18.25 24.2069C18.25 23.2867 18.9961 22.5381 19.9131 22.5381C20.1688 22.5381 19.8564 22.5136 27.3583 23.7558C27.875 23.8422 28.25 24.2847 28.25 24.8081C28.25 25.093 28.139 25.3609 27.9374 25.5624C27.7359 25.764 27.468 25.875 27.1831 25.875H19.9181V25.875ZM24.9161 31.2534C24.4897 31.2642 24.0663 31.3084 23.6502 31.3849L22.5379 27.125H23.8412L24.9161 31.2534ZM18.25 39.375C18.25 36.2592 20.3503 33.5266 23.3583 32.7296C24.6484 32.386 26.0875 32.4177 27.4278 32.8951C27.4306 32.8961 27.4333 32.8969 27.4361 32.8979L45.2602 38.9665C46.7496 39.4982 47.75 40.9178 47.75 42.5C47.75 44.4622 45.7849 46.1866 43.6268 46.1875L24.2346 46.1933C20.8201 45.7518 18.25 42.8271 18.25 39.375ZM47.125 48.75H18.875C18.5304 48.75 18.25 48.4696 18.25 48.125C18.25 47.7799 18.5299 47.5 18.875 47.5C19.3978 47.5 41.5039 47.5 47.125 47.5C47.4696 47.5 47.75 47.7804 47.75 48.125C47.75 48.4699 47.4701 48.75 47.125 48.75Z" fill="white"/>
<path d="M40.5 38.75C38.7769 38.75 37.375 40.1519 37.375 41.875C37.375 43.5981 38.7769 45 40.5 45C42.2231 45 43.625 43.5981 43.625 41.875C43.625 40.1519 42.2231 38.75 40.5 38.75ZM40.5 43.75C39.4661 43.75 38.625 42.9089 38.625 41.875C38.625 40.8411 39.4661 40 40.5 40C41.5339 40 42.375 40.8411 42.375 41.875C42.375 42.9089 41.5339 43.75 40.5 43.75Z" fill="white"/>
<path d="M31.75 42.5H29.1339L28.6291 41.9953C29.194 41.2426 29.5 40.3323 29.5 39.375C29.5 36.9626 27.5374 35 25.125 35C22.7126 35 20.75 36.9626 20.75 39.375C20.75 41.7874 22.7126 43.75 25.125 43.75C26.0822 43.75 26.9924 43.4441 27.7452 42.8791L28.4331 43.567C28.5503 43.6842 28.7093 43.7501 28.875 43.7501H31.75C32.0951 43.7501 32.375 43.4702 32.375 43.1251C32.375 42.7799 32.0951 42.5 31.75 42.5ZM27.7326 41.0988L25.5669 38.9331C25.3229 38.6891 24.9271 38.6891 24.6831 38.9331C24.439 39.1771 24.439 39.5729 24.6831 39.817L26.8487 41.9826C26.3416 42.3191 25.7471 42.5 25.125 42.5C23.4019 42.5 22 41.0981 22 39.375C22 37.6519 23.4019 36.25 25.125 36.25C26.8481 36.25 28.25 37.6519 28.25 39.375C28.25 39.9972 28.0691 40.5918 27.7326 41.0988Z" fill="white"/>
</svg>
