<svg width="67" height="67" viewBox="0 0 67 67" fill="none" xmlns="http://www.w3.org/2000/svg">
<circle cx="33.5" cy="33.5" r="32.5" stroke="white" stroke-width="2"/>
<path d="M30.3726 30.4293C30.103 30.1342 29.7192 29.9614 29.3197 29.9552C28.516 29.9449 27.8511 30.5856 27.8375 31.3887C27.8331 31.6476 28.0394 31.8609 28.2982 31.8653C28.301 31.8654 28.3036 31.8654 28.3063 31.8654C28.5615 31.8654 28.7705 31.6607 28.7748 31.4045C28.7797 31.1177 29.0154 30.8876 29.305 30.8926C29.4495 30.8948 29.5828 30.9548 29.6804 31.0616C29.855 31.2528 30.1516 31.2661 30.3426 31.0915C30.5338 30.9169 30.5472 30.6204 30.3726 30.4293Z" fill="white"/>
<path d="M32.8667 31.9568C32.723 31.619 32.4433 31.3525 32.0991 31.2254C31.407 30.9701 30.6354 31.3249 30.379 32.0162C30.2889 32.259 30.4128 32.5287 30.6554 32.6188C30.7092 32.6387 30.7643 32.6482 30.8184 32.6482C31.0088 32.6482 31.1878 32.5313 31.2579 32.3423C31.3349 32.1347 31.567 32.0284 31.7745 32.105C31.8788 32.1435 31.9603 32.2212 32.0039 32.3237C32.1052 32.5618 32.3806 32.673 32.6187 32.5716C32.857 32.4703 32.9679 32.195 32.8667 31.9568Z" fill="white"/>
<path d="M35.8877 27.8054C35.7044 27.6225 35.4076 27.6229 35.2248 27.8061L34.7829 28.2489C34.6001 28.4321 34.6004 28.7289 34.7836 28.9117C34.8751 29.003 34.9949 29.0487 35.1147 29.0487C35.2348 29.0487 35.3549 29.0028 35.4465 28.911L35.8884 28.4683C36.0713 28.2851 36.0709 27.9882 35.8877 27.8054Z" fill="white"/>
<path d="M32.9714 33.8569H32.3467C32.0877 33.8569 31.8779 34.0668 31.8779 34.3257C31.8779 34.5845 32.0877 34.7944 32.3467 34.7944H32.9714C33.2304 34.7944 33.4402 34.5845 33.4402 34.3257C33.4402 34.0668 33.2304 33.8569 32.9714 33.8569Z" fill="white"/>
<path d="M37.762 33.8569H37.1372C36.8783 33.8569 36.6685 34.0668 36.6685 34.3257C36.6685 34.5845 36.8783 34.7944 37.1372 34.7944H37.762C38.0209 34.7944 38.2308 34.5845 38.2308 34.3257C38.2308 34.0668 38.0209 33.8569 37.762 33.8569Z" fill="white"/>
<path d="M49.9849 42.3085L49.8629 41.6497C49.7851 41.2287 49.4174 40.9231 48.9888 40.9231C48.9349 40.9231 48.8807 40.928 48.8273 40.9378L46.3423 41.3943L47.4677 40.642C47.7626 40.4449 47.9117 40.0923 47.8474 39.7425C47.8295 39.6467 47.796 39.5547 47.7475 39.4687L47.4069 38.8656C47.2903 38.6584 47.0913 38.5045 46.8616 38.4435C46.7491 38.4135 46.6315 38.4068 46.5167 38.4217C46.642 37.7301 46.7066 37.0237 46.7066 36.3047C46.7066 35.9856 46.5148 35.7111 46.2407 35.5891C46.5988 34.7374 46.6233 33.7622 46.2693 32.8692C46.2406 32.7966 46.198 32.7318 46.1428 32.6766C46.088 32.6218 46.024 32.5795 45.9513 32.5503C45.5271 32.3814 45.0813 32.2958 44.6262 32.2958C44.568 32.2958 44.5101 32.2973 44.4523 32.3C44.3874 30.9917 43.3046 29.9473 41.9827 29.9473C41.8087 29.9473 41.6389 29.9658 41.475 30.0003C41.5888 29.319 41.5218 28.6063 41.2565 27.9372C41.228 27.8636 41.1852 27.7976 41.127 27.7385C41.071 27.6825 41.0053 27.6393 40.9324 27.6104C40.4755 27.4284 39.9952 27.3361 39.505 27.3361C38.7665 27.3361 38.06 27.5438 37.4502 27.9298C37.2274 27.2843 36.8599 26.6784 36.3466 26.1638C36.1962 26.0132 35.9962 25.9302 35.7834 25.9302C35.5706 25.9302 35.3706 26.0132 35.22 26.164L32.9504 28.4387C32.5304 28.0641 31.9778 27.8401 31.3779 27.8401C31.2418 27.8401 31.1043 27.8521 30.9694 27.8756C30.4805 27.9607 30.0305 28.2 29.6856 28.5505C29.2433 28.3371 28.7366 28.2643 28.2496 28.349C28.1425 28.3676 28.0386 28.3939 27.9377 28.4259V26.673C27.9377 25.4659 26.9675 24.4821 25.7674 24.4613V23.4672C26.1348 23.4037 26.4153 23.0835 26.4153 22.6982V20.4458C26.4153 20.015 26.0648 19.6646 25.634 19.6646H21.8221C21.3913 19.6646 21.0409 20.015 21.0409 20.4458V22.6982C21.0409 23.0835 21.3214 23.4037 21.6887 23.4672V24.4612C20.4886 24.4819 19.5185 25.4657 19.5185 26.6729V40.3538C18.5826 41.199 18 42.3783 18 43.6825C18 46.2478 20.2516 48.3349 23.0192 48.3349L41.7808 48.3294C42.4212 48.3292 43.0234 48.0478 43.433 47.5574C43.832 47.08 44.0016 46.4599 43.9039 45.8484L47.6512 46.5219C47.7031 46.5312 47.7562 46.5359 47.8089 46.5359C47.9958 46.5359 48.1748 46.4786 48.3264 46.3702C48.5214 46.2309 48.6533 46.0154 48.6885 45.7789L48.79 45.0979C48.8046 45.0003 48.803 44.9021 48.7852 44.8058C48.7207 44.4575 48.4555 44.1812 48.1096 44.102L46.7888 43.799L49.2713 43.3429C49.5054 43.2999 49.7086 43.1685 49.8433 42.9728C49.9778 42.7776 50.0281 42.5417 49.9849 42.3085ZM44.6262 33.2331C44.9084 33.2331 45.1858 33.2778 45.4526 33.3659C45.691 34.0917 45.6017 34.8747 45.2285 35.5214H43.9657L44.3686 35.1176C44.5515 34.9343 44.5511 34.6375 44.3678 34.4546C44.1845 34.2717 43.8877 34.2721 43.705 34.4554L43.4918 34.6691C43.3918 34.34 43.2173 34.0454 42.988 33.8037C43.4532 33.4342 44.0243 33.2331 44.6262 33.2331ZM41.9827 30.8846C42.8293 30.8846 43.518 31.5754 43.518 32.4244C43.518 32.4402 43.5172 32.4558 43.5168 32.4714C43.0227 32.6321 42.5672 32.9005 42.1788 33.2651C42.117 33.2416 42.0543 33.2199 41.9899 33.2021C41.8528 32.4613 41.3536 31.8676 40.6942 31.5903C40.9678 31.1663 41.4427 30.8846 41.9827 30.8846ZM39.5049 28.2735C39.8233 28.2735 40.1362 28.325 40.4377 28.4269C40.68 29.1474 40.6305 29.9213 40.3217 30.5917C40.0679 30.8229 39.862 31.106 39.7212 31.4243C39.6375 31.4291 39.5539 31.4384 39.4712 31.4528C39.1039 31.5167 38.7614 31.6761 38.4747 31.9072C38.377 31.7284 38.2573 31.5635 38.1202 31.415L39.1951 30.3376C39.378 30.1544 39.3776 29.8576 39.1943 29.6748C39.011 29.4919 38.7142 29.4922 38.5314 29.6755L37.3565 30.8531C37.1329 30.7474 36.8913 30.6739 36.6374 30.6395C36.7471 30.0801 37.0185 29.5531 37.4384 29.1322C37.9908 28.5785 38.7247 28.2735 39.5049 28.2735ZM35.9131 35.5214H35.5067C35.4383 35.3473 35.2691 35.2239 35.0707 35.2239C34.8722 35.2239 34.7031 35.3474 34.6346 35.5214H34.1566C34.2676 35.3407 34.2452 35.1012 34.0885 34.9448C33.9052 34.7619 33.6084 34.7622 33.4256 34.9455L32.9838 35.3882C32.9441 35.428 32.9136 35.4733 32.8911 35.5214H31.9371C31.5798 34.9731 31.3617 34.3259 31.3359 33.6297H38.7725C38.7467 34.3259 38.5286 34.9731 38.1713 35.5214H37.1785C37.1561 35.4733 37.1255 35.4279 37.0859 35.3882L36.6441 34.9454C36.4612 34.7622 36.1645 34.7617 35.9812 34.9447C35.8244 35.1011 35.802 35.3406 35.9131 35.5214ZM34.8229 32.6922C34.9996 32.0374 35.5969 31.5542 36.3047 31.5542C37.0127 31.5542 37.61 32.0374 37.7867 32.6922H34.8229ZM35.7814 26.9284C36.2273 27.4103 36.5221 27.9824 36.6667 28.5838C36.4274 28.8438 36.2286 29.1312 36.0717 29.437C36.0006 29.3934 35.9171 29.3678 35.8276 29.3678H35.2029C34.9441 29.3678 34.7342 29.5777 34.7342 29.8366C34.7342 30.0954 34.9441 30.3053 35.2029 30.3053H35.7509C35.7201 30.4348 35.6961 30.5658 35.6787 30.6978C35.4926 30.7466 35.3149 30.8163 35.1485 30.9049C34.8361 30.3657 34.3187 29.9639 33.7057 29.8027C33.7055 29.8014 33.7053 29.8001 33.705 29.7988C33.6683 29.5866 33.6041 29.3854 33.5167 29.1983L35.7814 26.9284ZM27.3078 31.1581C27.2803 31.0813 27.2595 31.0024 27.2458 30.9233C27.1114 30.1482 27.6339 29.4077 28.4103 29.2725C28.4922 29.2583 28.5754 29.251 28.6575 29.251C28.9663 29.251 29.2615 29.3495 29.5109 29.5358C29.6141 29.6129 29.7446 29.6441 29.8716 29.6221C29.9986 29.6001 30.1109 29.5268 30.1821 29.4193C30.4022 29.0874 30.7389 28.8671 31.1301 28.799C31.2122 28.7847 31.2956 28.7775 31.3779 28.7775C32.0724 28.7775 32.6626 29.2744 32.7813 29.9591C32.7949 30.0375 32.8019 30.1193 32.802 30.2021C32.8024 30.4447 32.988 30.6469 33.2298 30.6682C33.7538 30.7143 34.1999 31.0441 34.4067 31.5087C34.1299 31.841 33.9379 32.2468 33.8651 32.6922H31.1918C30.8595 32.6922 30.5743 32.8974 30.4553 33.1877C29.8672 32.7872 29.1741 32.5714 28.4477 32.5714C27.9926 32.5714 27.5468 32.6571 27.1223 32.8261C27.0503 32.8548 26.986 32.8972 26.9311 32.9521C26.8755 33.0077 26.8328 33.0729 26.8048 33.1444C26.6969 33.4165 26.625 33.6962 26.5861 33.9776C26.4181 33.7864 26.2997 33.5486 26.2535 33.2817C26.1432 32.6457 26.4762 32.0124 27.0628 31.7417C27.2833 31.6399 27.3897 31.3867 27.3078 31.1581ZM28.7052 35.3932L28.8331 35.5214H27.7073C27.4545 34.9351 27.4162 34.2676 27.6213 33.6416C27.8885 33.5534 28.1658 33.5088 28.4477 33.5088C29.154 33.5088 29.8185 33.7849 30.3185 34.2861C30.385 34.3527 30.447 34.4226 30.5051 34.4948C30.5846 34.8544 30.7066 35.198 30.8639 35.5214H30.1575L29.3689 34.731C29.186 34.5478 28.8891 34.5473 28.706 34.7302C28.5227 34.9132 28.5223 35.21 28.7052 35.3932ZM26.709 35.5214H25.0379C25.1124 35.0674 25.3855 34.6803 25.7647 34.4521C25.9891 34.7527 26.282 34.9959 26.6195 35.1606C26.6434 35.2822 26.6727 35.4027 26.709 35.5214ZM21.9784 20.602H25.4778V22.542H21.9784V20.602ZM24.8299 23.4795V24.4603H22.6263V23.4795H24.8299ZM20.4561 28.5739H23.5C23.7589 28.5739 23.9687 28.364 23.9687 28.1051C23.9687 27.8463 23.7589 27.6364 23.5 27.6364H20.4561V26.6729C20.4561 25.9698 21.0263 25.3978 21.7272 25.3978H25.729C26.43 25.3978 27.0002 25.9698 27.0002 26.6729V27.6364H26.125C25.866 27.6364 25.6562 27.8463 25.6562 28.1051C25.6562 28.364 25.866 28.5739 26.125 28.5739H27.0002V28.99C26.4632 29.5165 26.1842 30.2887 26.322 31.083C26.3222 31.0846 26.3225 31.0862 26.3228 31.0878C25.5708 31.6038 25.1701 32.521 25.3297 33.4418C25.339 33.4956 25.3507 33.5484 25.3634 33.6007C25.1292 33.7299 24.9189 33.8966 24.7387 34.0917H20.4561V28.5739ZM20.456 35.0292H24.1944C24.1446 35.1872 24.1095 35.3516 24.0924 35.5214H24.0134C23.5819 35.5214 23.2309 35.8727 23.2309 36.3045C23.2309 37.0489 23.3 37.7795 23.4341 38.4944C23.2994 38.4836 23.1613 38.4778 23.0208 38.4778C22.4539 38.4778 21.9138 38.5677 21.5001 38.7311C20.8673 38.981 20.6924 39.3358 20.6542 39.5813C20.5871 39.6147 20.5212 39.6499 20.456 39.686V35.0292ZM26.3917 40.7876C26.5605 40.9227 26.6637 41.0375 26.7235 41.1203C26.7178 41.1203 26.712 41.1204 26.706 41.1204C26.4407 41.1204 25.964 41.0135 25.422 40.7134C25.2202 40.6016 25.0342 40.4753 24.8842 40.3482C24.7093 40.2 24.4529 40.2002 24.2782 40.3483C24.1282 40.4755 23.9423 40.6017 23.7407 40.7133C23.1985 41.0135 22.7218 41.1204 22.4565 41.1204C22.4505 41.1204 22.4447 41.1203 22.439 41.1203C22.4987 41.0375 22.6019 40.9226 22.7708 40.7875C22.9184 40.6693 22.9805 40.4741 22.9285 40.2924C22.8764 40.1107 22.7202 39.978 22.5324 39.956C22.075 39.9023 21.7857 39.7859 21.6503 39.7012C21.82 39.5955 22.249 39.4153 23.021 39.4153C23.6604 39.4153 24.1277 39.5497 24.3518 39.6756C24.4943 39.7556 24.6682 39.7556 24.8107 39.6757C25.035 39.5498 25.5023 39.4153 26.1417 39.4153C26.9138 39.4153 27.3427 39.5956 27.5123 39.7012C27.377 39.786 27.0877 39.9024 26.6301 39.956C26.4423 39.9781 26.2861 40.1107 26.234 40.2925C26.1818 40.4743 26.244 40.6695 26.3917 40.7876ZM25.454 46.4929L25.4701 46.5798C25.5258 46.8809 25.6434 47.1572 25.8077 47.3974H23.0192C20.7686 47.3974 18.9375 45.7309 18.9375 43.6825C18.9375 42.2825 19.793 41.0615 21.0527 40.4284C21.1974 40.5364 21.3778 40.6295 21.5918 40.7047C21.5069 40.8496 21.4478 41.0055 21.4339 41.168C21.4154 41.3842 21.4815 41.5894 21.6202 41.746C21.8035 41.953 22.0849 42.058 22.4565 42.058C22.9518 42.058 23.6016 41.8619 24.1947 41.5335C24.3313 41.458 24.4604 41.3782 24.5813 41.2948C24.7021 41.3781 24.8312 41.4579 24.9678 41.5336C25.561 41.8619 26.2108 42.0579 26.706 42.058H26.7061C27.0776 42.058 27.359 41.953 27.5422 41.7461C27.681 41.5895 27.7472 41.3842 27.7286 41.168C27.7147 41.0055 27.6556 40.8496 27.5707 40.7047C27.7847 40.6295 27.9651 40.5363 28.1098 40.4284C29.1089 40.9305 29.8533 41.8025 30.1188 42.8401L26.8035 44.0996C25.833 44.4683 25.2655 45.4748 25.454 46.4929ZM42.7135 46.9563C42.4824 47.2331 42.1422 47.3918 41.7803 47.3919L41.2883 47.3921L40.981 45.7324C40.9338 45.4779 40.6893 45.3096 40.4347 45.3569C40.1802 45.404 40.012 45.6486 40.0591 45.9031L40.335 47.3924L38.7221 47.3931L38.5143 46.2708C38.4671 46.0162 38.2226 45.8481 37.968 45.8952C37.7135 45.9423 37.5453 46.1869 37.5924 46.4414L37.7687 47.3934L34.0171 47.3949L33.7348 45.8706C33.6875 45.6161 33.4431 45.448 33.1884 45.4951C32.9339 45.5423 32.7658 45.7869 32.8129 46.0414L33.0637 47.3953L27.586 47.3974C27.5858 47.3974 27.5857 47.3974 27.5856 47.3974C26.9998 47.3974 26.4978 46.9818 26.3917 46.4089L26.3756 46.322C26.2697 45.7498 26.5895 45.1837 27.1362 44.976L28.9785 44.2761L29.1158 45.0168C29.1576 45.2425 29.3546 45.4003 29.5761 45.4003C29.6045 45.4003 29.6332 45.3976 29.6621 45.3923C29.9166 45.3451 30.0847 45.1006 30.0375 44.846L29.8692 43.9377L32.6039 42.8988C32.8459 42.8069 32.9676 42.5361 32.8756 42.2941C32.7837 42.0521 32.5126 41.9305 32.271 42.0224L30.9984 42.5058C30.6414 41.2419 29.7243 40.1861 28.5081 39.5812C28.47 39.3357 28.295 38.9809 27.6623 38.731C27.2486 38.5677 26.7085 38.4777 26.1416 38.4777C25.7515 38.4777 25.3789 38.5208 25.05 38.5992V38.3161C25.05 38.0572 24.8402 37.8474 24.5813 37.8474C24.4718 37.8474 24.3715 37.8851 24.2917 37.948C24.2177 37.459 24.1764 36.9624 24.1695 36.4588H39.4374C39.6964 36.4588 39.9062 36.2489 39.9062 35.99C39.9062 35.7312 39.6964 35.5213 39.4374 35.5213H39.2456C39.5441 34.9066 39.7127 34.2173 39.7127 33.4889C39.7127 33.0753 39.3963 32.7346 38.993 32.6959C39.1686 32.5304 39.3877 32.4188 39.632 32.3762C39.7035 32.3638 39.7762 32.3574 39.8479 32.3574C40.4531 32.3574 40.9673 32.7904 41.0707 33.3867C41.0826 33.4558 41.0887 33.5271 41.0888 33.5986C41.0891 33.8414 41.2747 34.0437 41.5165 34.065C42.0767 34.1142 42.535 34.5355 42.6311 35.0895C42.6566 35.2368 42.6534 35.3822 42.6278 35.5213H42.1249C41.866 35.5213 41.6562 35.7312 41.6562 35.99C41.6562 36.2489 41.866 36.4588 42.1249 36.4588H45.7681C45.7565 37.3187 45.6458 38.1586 45.4392 38.9735L42.8988 40.4732C42.7435 39.9324 42.3823 39.4737 41.8848 39.1952C41.3267 38.8829 40.6635 38.8341 40.0654 39.0613L34.8335 41.0489C34.5914 41.1408 34.4698 41.4116 34.5617 41.6536C34.6537 41.8957 34.9247 42.0172 35.1664 41.9253L35.8556 41.6635L36.0696 42.819C36.1114 43.0446 36.3084 43.2025 36.53 43.2025C36.5583 43.2025 36.5871 43.1998 36.6159 43.1945C36.8704 43.1474 37.0386 42.9028 36.9915 42.6483L36.7464 41.3252L40.3982 39.9378C40.7366 39.8093 41.1115 39.8369 41.4269 40.0135C41.7418 40.1897 41.9599 40.4934 42.0254 40.8467L42.9737 45.9663C43.0391 46.3194 42.9443 46.6802 42.7135 46.9563ZM44.386 43.2872C44.1673 43.3274 44.007 43.5156 44.0021 43.738C43.9972 43.9603 44.1492 44.1554 44.3659 44.2051L47.8559 45.0056L47.7687 45.5905L43.7228 44.8635L43.0904 41.4488L46.6144 39.3686L46.9079 39.8884L43.9356 41.8753C43.7508 41.9989 43.6781 42.2353 43.7618 42.4413C43.8453 42.6473 44.0622 42.7663 44.2808 42.7261L48.9499 41.8684L49.0539 42.4296L44.386 43.2872Z" fill="white"/>
</svg>
