<svg width="67" height="67" viewBox="0 0 67 67" fill="none" xmlns="http://www.w3.org/2000/svg">
<circle cx="33.5" cy="33.5" r="32.5" stroke="white" stroke-width="2"/>
<path d="M27.8314 36.2743C27.7039 36.2743 27.5764 36.3229 27.4791 36.4201C27.2846 36.6147 27.2846 36.93 27.4791 37.1245L27.8118 37.4572C28.0064 37.6516 28.3217 37.6516 28.5162 37.4572C28.7107 37.2626 28.7107 36.9473 28.5162 36.7528L28.1836 36.4201C28.0863 36.3229 27.9588 36.2743 27.8314 36.2743V36.2743Z" fill="white"/>
<path d="M30.2176 33.888C30.0902 33.888 29.9627 33.9366 29.8654 34.0338C29.6709 34.2283 29.6709 34.5437 29.8654 34.7382L30.198 35.0709C30.3926 35.2654 30.7079 35.2655 30.9024 35.0709C31.097 34.8764 31.097 34.561 30.9025 34.3666L30.5698 34.0339C30.4726 33.9366 30.3451 33.888 30.2176 33.888Z" fill="white"/>
<path d="M32.6038 31.5018C32.4764 31.5018 32.3489 31.5504 32.2516 31.6477C32.0571 31.8422 32.0571 32.1576 32.2516 32.3521L32.5843 32.6847C32.7788 32.8792 33.0942 32.8792 33.2887 32.6847C33.4832 32.4901 33.4832 32.1748 33.2887 31.9803L32.956 31.6477C32.8588 31.5504 32.7313 31.5018 32.6038 31.5018Z" fill="white"/>
<path d="M34.9901 29.1156C34.8627 29.1156 34.7352 29.1642 34.6379 29.2615C34.4433 29.456 34.4434 29.7714 34.6379 29.9658L34.9705 30.2985C35.1651 30.4929 35.4804 30.493 35.6749 30.2984C35.8695 30.1039 35.8694 29.7885 35.6749 29.5941L35.3423 29.2614C35.245 29.1642 35.1175 29.1156 34.9901 29.1156Z" fill="white"/>
<path d="M38.0616 27.9123C38.2561 27.7177 38.2561 27.4024 38.0616 27.2078L37.729 26.8752C37.6318 26.778 37.5042 26.7293 37.3768 26.7293C37.2494 26.7293 37.1218 26.778 37.0246 26.8752C36.8301 27.0698 36.8301 27.3851 37.0246 27.5796L37.3573 27.9123C37.5517 28.1067 37.8671 28.1067 38.0616 27.9123Z" fill="white"/>
<path d="M33.0964 34.4297C33.909 34.6506 34.6109 34.8414 35.1185 36.1865C35.1782 36.3448 35.3142 36.4618 35.4796 36.4976C35.6449 36.5333 35.8171 36.4824 35.9367 36.3629L43.752 28.5476C43.8455 28.4542 43.8979 28.3275 43.8979 28.1954C43.8979 28.0632 43.8455 27.9366 43.752 27.8431L39.1588 23.2499C39.0655 23.1566 38.9388 23.1041 38.8067 23.1041C38.6746 23.1041 38.5479 23.1566 38.4545 23.2499L36.6073 25.0972C36.4127 25.2918 36.4127 25.6071 36.6073 25.8016C36.8018 25.996 37.1172 25.996 37.3116 25.8016L38.8067 24.3065L42.6955 28.1953L35.7376 35.1532C35.0552 33.9298 34.1257 33.6772 33.3577 33.4685C32.5039 33.2364 31.8748 33.0654 31.5339 31.5794L35.9034 27.2098C36.098 27.0153 36.098 26.6999 35.9034 26.5054C35.7089 26.311 35.3935 26.311 35.1991 26.5054L30.6392 31.0653C30.5227 31.1819 30.4713 31.3485 30.502 31.5102C30.9442 33.8448 32.0876 34.1556 33.0964 34.4297V34.4297Z" fill="white"/>
<path d="M17.1461 43.0715L20.7153 46.6406C20.9099 46.8351 21.2252 46.8351 21.4197 46.6406C21.6142 46.446 21.6142 46.1307 21.4197 45.9362L18.2027 42.7194L19.0376 41.8844C19.6128 42.4596 24.4851 47.332 25.1163 47.9632L24.2815 48.798L22.8279 47.3444C22.6333 47.1499 22.318 47.1499 22.1235 47.3444C21.9289 47.539 21.9289 47.8543 22.1235 48.0488L23.9293 49.8546C24.1239 50.0491 24.4392 50.0491 24.6337 49.8546L26.173 48.3154C26.3675 48.1208 26.3675 47.8055 26.173 47.6109L24.5996 46.0375L26.6801 43.9569L29.1429 46.4197C29.3374 46.6141 29.6528 46.6142 29.8473 46.4197L31.6027 44.6643C31.6961 44.5709 31.7486 44.4443 31.7486 44.3121C31.7486 44.1799 31.6961 44.0534 31.6027 43.9599L31.0656 43.4227L34.462 40.0263C34.6565 39.8317 34.6565 39.5164 34.462 39.3218C34.2675 39.1274 33.9522 39.1274 33.7576 39.3218L30.3612 42.7183L24.2825 36.6396L38.6675 22.2546C38.7437 22.1783 38.8676 22.1782 38.9439 22.2546L44.7462 28.0569C44.8224 28.133 44.8224 28.2571 44.7462 28.3332L35.1657 37.9137C34.9712 38.1082 34.9712 38.4236 35.1657 38.6181C35.3603 38.8125 35.6757 38.8125 35.8701 38.6181L45.4506 29.0376C45.9152 28.573 45.9152 27.817 45.4506 27.3524L44.8604 26.7622L45.8673 25.7553C46.0418 25.5807 46.138 25.3486 46.138 25.1017C46.138 24.8548 46.0418 24.6227 45.8673 24.4481L44.5621 23.1429L50.8546 16.8504C51.0491 16.6558 51.0491 16.3405 50.8546 16.146C50.66 15.9515 50.3447 15.9515 50.1502 16.146L43.8577 22.4385L42.5525 21.1333C42.3724 20.9531 42.1357 20.863 41.899 20.863C41.6624 20.863 41.4257 20.9532 41.2455 21.1333L40.2385 22.1403L39.6483 21.5501C39.416 21.3178 39.1108 21.2017 38.8057 21.2017C38.5006 21.2017 38.1955 21.3178 37.9631 21.5501L23.5781 35.9351L23.0409 35.3979C22.9436 35.3007 22.8161 35.2521 22.6887 35.2521C22.5612 35.2521 22.4337 35.3007 22.3364 35.3979L20.581 37.1534C20.4876 37.2468 20.4351 37.3735 20.4351 37.5056C20.4351 37.6378 20.4876 37.7644 20.581 37.8579L23.0438 40.3207L20.9632 42.4012L19.3898 40.8278C19.2964 40.7344 19.1697 40.6819 19.0376 40.6819C18.9054 40.6819 18.7789 40.7344 18.6853 40.8278L17.1461 42.3672C16.9516 42.5617 16.9516 42.877 17.1461 43.0715V43.0715ZM41.899 21.8886L43.5053 23.495C43.5054 23.495 43.5055 23.4952 43.5056 23.4953C43.5057 23.4954 43.5058 23.4955 43.5059 23.4956L45.1122 25.1019L44.156 26.0579L40.9429 22.8447L41.899 21.8886ZM22.6887 36.4547C23.2091 36.9751 22.8089 36.5749 30.5461 44.3121L29.4951 45.3631C26.9411 42.8091 24.1159 39.9839 21.6377 37.5057L22.6887 36.4547ZM23.7483 41.0251L25.9757 43.2524L23.8952 45.333L21.6677 43.1056L23.7483 41.0251Z" fill="white"/>
</svg>
