<svg width="67" height="67" viewBox="0 0 67 67" fill="none" xmlns="http://www.w3.org/2000/svg">
<circle cx="33.5" cy="33.5" r="32.5" stroke="white" stroke-width="2"/>
<path d="M39.8506 25.8306C38.9659 24.8472 37.741 24.3057 36.4014 24.3057C34.6057 24.3057 33.432 25.0473 32.71 25.782C31.9879 25.0473 30.8143 24.3057 29.0186 24.3057C27.679 24.3057 26.454 24.8472 25.5693 25.8306C24.733 26.7601 24.2725 28.0006 24.2725 29.3234C24.2725 32.8992 27.7394 35.1453 32.0236 38.8174L32.71 39.4058L33.3964 38.8174C37.6804 35.1455 41.1475 32.8981 41.1475 29.3234C41.1475 28.0006 40.6869 26.7601 39.8506 25.8306ZM32.71 36.6319C28.8514 33.3724 26.3818 31.61 26.3818 29.3234C26.3818 27.6654 27.5154 26.415 29.0186 26.415C30.9784 26.415 31.6476 27.8018 31.7308 27.9938L32.6744 30.5604L33.6908 27.9893C33.6969 27.9735 34.3369 26.415 36.4013 26.415C37.9044 26.415 39.038 27.6654 39.038 29.3234C39.0381 31.6113 36.5693 33.3718 32.71 36.6319Z" fill="white"/>
<path d="M45.5274 33.102L45.7396 32.6776C49.83 24.4969 42.0266 16.063 32.8418 16.0116V16C24.7 16 18.0762 22.6239 18.0762 30.7656C18.0762 34.7772 19.6773 38.4298 22.2949 41.0933V52H37.0605V47.6082C38.0889 47.7983 39.2012 47.9116 40.4033 47.9116C41.8463 47.9116 43.1224 46.9918 43.5788 45.6229L45.27 40.5492L47.924 37.8952L45.5274 33.102ZM43.4264 39.4098L41.5777 44.9559C41.409 45.4621 40.937 45.8022 40.4034 45.8022C35.244 45.8022 31.977 43.5114 30.0249 42.1427C29.5305 41.796 29.1399 41.5221 28.7928 41.3391L27.809 43.205C28.0381 43.3258 28.3977 43.5779 28.8139 43.8698C30.1104 44.7789 32.1269 46.191 34.9513 47.0828V49.8906H24.4044V40.2022C24.2688 40.0107 20.1857 36.8387 20.1857 30.7656C20.1857 24.4 24.9098 19.1179 31.036 18.2387L31.0361 18.2399C31.5925 18.1616 32.1488 18.1221 32.7013 18.1189C40.3356 18.0736 47.252 24.9364 43.853 31.7343L43.1692 33.102L45.3575 37.4788L43.4264 39.4098Z" fill="white"/>
</svg>
