<svg width="67" height="67" viewBox="0 0 67 67" fill="none" xmlns="http://www.w3.org/2000/svg">
<circle cx="33.5" cy="33.5" r="32.5" stroke="white" stroke-width="2"/>
<path d="M49.6541 20.8689C49.6462 20.5559 49.5989 20.21 49.3084 20.0169C48.9764 19.7964 48.5936 19.9455 48.2234 20.0901C47.3343 20.437 46.4343 20.6624 45.3913 20.7997C45.1346 20.8334 44.9539 21.0689 44.9877 21.3256C45.0214 21.5822 45.2569 21.7631 45.5136 21.7291C46.6334 21.5819 47.6028 21.3386 48.5643 20.9635C48.5985 20.9501 48.6566 20.9274 48.7173 20.9052C48.7358 21.6819 48.5313 22.283 48.0921 22.7426C47.3834 23.4843 46.0256 23.879 44.0562 23.9158C43.7974 23.9207 43.5914 24.1344 43.5963 24.3933C43.6011 24.6492 43.81 24.8533 44.0648 24.8533C44.0678 24.8533 44.0708 24.8533 44.0738 24.8532C45.1769 24.8326 46.107 24.7076 46.8754 24.4759C46.8886 25.1116 46.7319 25.618 46.4 26.0125C46.1763 26.2785 45.8663 26.4987 45.4726 26.6731C45.4689 26.6747 45.4651 26.6762 45.4615 26.6781C44.7779 26.9781 43.8433 27.1404 42.6655 27.1619C42.4066 27.1667 42.2007 27.3804 42.2054 27.6392C42.2101 27.8952 42.4191 28.0994 42.6739 28.0994C42.6769 28.0994 42.6798 28.0994 42.6828 28.0993C43.6836 28.081 44.5304 27.9683 45.2321 27.7592C45.1989 28.2085 45.0391 28.6204 44.7532 28.9888C44.1277 29.7948 43.0033 30.2526 42.1243 30.3641C42.0179 30.1672 41.8978 29.9736 41.7644 29.785C41.1634 28.9331 40.2388 28.2047 39.2904 27.8363C38.254 27.4356 37.3928 27.5139 36.9271 28.0514C36.4946 28.5528 36.5141 29.3927 36.7009 30.0961C36.3084 30.0336 35.9095 29.9618 35.5067 29.8817V26.2336C36.9626 25.9773 38.2201 25.1851 39.0799 23.972L39.0989 23.9452C40.2824 22.3019 41.609 22.0731 43.3539 21.9293C43.6119 21.9081 43.8038 21.6816 43.7825 21.4236C43.7612 21.1656 43.5355 20.9733 43.2768 20.995C41.4106 21.1488 39.7509 21.4358 38.3383 23.3973L38.3149 23.4299C37.6329 24.3923 36.6488 25.036 35.5066 25.2784V24.008C36.2439 23.5182 36.7312 22.6804 36.7312 21.7304C36.7311 20.2249 35.5062 19 34.0007 19C32.4943 19 31.2686 20.2249 31.2686 21.7304C31.2686 22.68 31.7558 23.5176 32.4931 24.0074V25.2785C31.3554 25.0363 30.3721 24.3936 29.6869 23.4328L29.6618 23.3976C28.1191 21.2552 26.3248 21.1176 24.2472 20.9583C22.9381 20.8579 21.4544 20.7441 19.7781 20.0902C19.4076 19.9456 19.0244 19.796 18.6917 20.0171C18.4008 20.2104 18.3534 20.5561 18.3455 20.8681C18.3179 21.8987 18.6154 22.7473 19.2298 23.3903C19.4982 23.6712 19.8237 23.9106 20.2076 24.1098C20.1159 25.1308 20.342 25.9734 20.8837 26.6169C21.1353 26.9158 21.4497 27.1686 21.8293 27.3763C21.7822 28.1855 22.0167 28.9416 22.5164 29.5804C23.2906 30.5705 24.5244 31.0826 25.4939 31.2561C25.2462 32.0299 25.2071 32.8119 25.4002 33.5017C25.7076 34.5999 26.5439 35.4518 27.8858 36.0334L30.3216 37.0906C29.5714 37.4889 28.9401 37.9227 28.439 38.3864C28.249 38.5623 28.2374 38.8589 28.4133 39.0489C28.5058 39.1488 28.6314 39.1992 28.7575 39.1992C28.8714 39.1992 28.9856 39.158 29.0758 39.0746C29.6606 38.5334 30.4586 38.0312 31.4494 37.5801L32.8221 38.1759L31.7768 38.6298C30.1651 39.3285 29.4068 40.0726 29.4583 40.9047C29.5086 41.717 30.3425 42.3832 31.8697 42.8311L32.8202 43.1103C32.8223 43.1109 32.8244 43.1116 32.8265 43.1122L37.5125 44.4885C39.0334 44.9344 39.9624 45.8477 40.0613 46.9942C40.1381 47.8871 39.6751 48.7403 38.9089 49.1173C38.1448 49.4932 37.6514 49.4878 37.5196 49.4385C37.5239 49.3741 37.5633 49.1768 37.8406 48.7907C38.4466 47.9503 38.6384 47.2408 38.4269 46.6216C38.2257 46.0323 37.6718 45.5998 36.7808 45.3359L31.0858 43.6471C30.9702 43.6128 30.7146 43.5274 30.6971 43.5225C28.8646 42.8897 27.8816 41.8662 28.0507 40.7412C28.0891 40.4852 27.9128 40.2465 27.6568 40.208C27.3996 40.1699 27.1621 40.3459 27.1236 40.6019C26.9236 41.9321 27.7188 43.1211 29.2961 43.9421C27.9502 44.5871 27.1128 45.6528 27.0041 46.9137C26.8942 48.1886 27.5663 49.4122 28.6766 49.9584C29.1885 50.2103 29.7814 50.4005 30.2901 50.4005C30.6643 50.4004 30.993 50.2976 31.2104 50.0408C31.4574 49.749 31.6075 49.2003 30.9192 48.2423C30.5098 47.6746 30.3553 47.2313 30.4599 46.9251C30.5813 46.5697 31.0852 46.3535 31.4868 46.2347L32.493 45.9364V49.4923C32.493 50.3236 33.1693 50.9999 34.0006 50.9999C34.8309 50.9999 35.5064 50.3236 35.5064 49.4923V45.9358L36.5145 46.2348C36.9153 46.3534 37.4186 46.5694 37.5398 46.9245C37.6444 47.2309 37.4898 47.6743 37.0798 48.243C36.392 49.2003 36.5421 49.7491 36.7891 50.0408C37.0065 50.2977 37.3351 50.4006 37.7093 50.4006C38.2181 50.4006 38.8109 50.2104 39.3229 49.9585C40.4331 49.4124 41.1053 48.1888 40.9954 46.9138C40.8864 45.6499 40.0453 44.5821 38.6939 43.9376C40.0306 43.2264 40.8006 42.2247 40.8469 41.0904C40.9063 39.6371 39.7839 38.2071 37.7301 37.0686L40.1154 36.0335C41.4566 35.4518 42.2923 34.6001 42.5996 33.5021C42.7928 32.8114 42.7534 32.0284 42.5051 31.2539C43.4821 31.0743 44.7242 30.5551 45.4937 29.5638C45.9859 28.9296 46.2166 28.1794 46.1702 27.3767C46.5505 27.1687 46.8654 26.9155 47.1173 26.6161C47.6587 25.9725 47.8844 25.1302 47.7922 24.1097C48.176 23.9106 48.5014 23.6712 48.7698 23.3903C49.3842 22.7474 49.6817 21.8988 49.6541 20.8689ZM31.2207 45.3359C30.3286 45.5999 29.7742 46.0326 29.5728 46.6221C29.3613 47.2412 29.5531 47.9506 30.1584 48.7901C30.4362 49.1768 30.4755 49.3741 30.48 49.4386C30.3483 49.4878 29.8548 49.4933 29.0906 49.1173C28.3244 48.7404 27.8614 47.8872 27.9383 46.9943C28.0371 45.8478 28.9661 44.9345 30.4892 44.4879L30.5628 44.4659C30.647 44.4933 32.352 45.0004 32.352 45.0004L31.2207 45.3359ZM34.569 49.4924C34.569 49.8067 34.3141 50.0625 34.0007 50.0625C33.6863 50.0625 33.4306 49.8067 33.4306 49.4924V45.6586L34.0009 45.4895L34.569 45.658V49.4924ZM37.1549 31.1121C37.3961 31.4457 37.7943 31.8155 38.4424 32.0341C39.1019 32.2566 39.2832 32.4759 39.2869 32.5608C39.2958 32.7622 38.8108 33.2636 37.7051 33.7482L35.5065 34.7119V30.8382C36.0661 30.9462 36.6177 31.0375 37.1549 31.1121ZM34.0007 19.9375C34.9893 19.9375 35.7936 20.7418 35.7936 21.7304C35.7936 22.72 34.9893 23.5251 34.0007 23.5251C33.0111 23.5251 32.2061 22.72 32.2061 21.7304C32.2061 20.7418 33.0111 19.9375 34.0007 19.9375ZM34.0007 24.4626C34.1956 24.4626 34.3856 24.4416 34.569 24.4026V25.8253V25.8271V30.262V30.2651V35.1229L33.9996 35.3726L33.4306 35.1231V30.2644C33.4306 30.2634 33.4306 30.2625 33.4306 30.2616V25.8271C33.4306 25.8265 33.4306 25.8259 33.4306 25.8253V24.4023C33.6146 24.4415 33.8052 24.4626 34.0007 24.4626ZM30.8447 31.1119C31.3879 31.0366 31.9396 30.9457 32.4931 30.8386V34.7121L30.2946 33.7483C29.1896 33.2636 28.7051 32.7619 28.7139 32.5606C28.7177 32.4757 28.8988 32.2566 29.5568 32.0343C30.2044 31.8165 30.6028 31.4467 30.8447 31.1119ZM23.2549 29.0029C22.9636 28.6304 22.801 28.2137 22.7676 27.7592C23.4693 27.9684 24.3162 28.0811 25.3171 28.0994C25.3201 28.0995 25.323 28.0995 25.3259 28.0995C25.5808 28.0995 25.7898 27.8952 25.7944 27.6394C25.7991 27.3805 25.5932 27.1668 25.3344 27.1621C23.4701 27.1279 22.2141 26.7414 21.6011 26.0132C21.269 25.6186 21.112 25.1121 21.1248 24.4761C21.8931 24.7077 22.8232 24.8326 23.926 24.8533C23.929 24.8533 23.932 24.8533 23.935 24.8533C24.1898 24.8533 24.3987 24.6491 24.4035 24.3934C24.4083 24.1345 24.2024 23.9208 23.9436 23.9159C21.9743 23.8791 20.6164 23.4844 19.9078 22.7427C19.4686 22.2831 19.264 21.6819 19.2826 20.9047C19.3439 20.927 19.4029 20.9501 19.4375 20.9636C21.2436 21.6683 22.8012 21.7877 24.1754 21.8931C26.1711 22.0461 27.6129 22.1566 28.9023 23.9474L28.9236 23.9771C29.7867 25.1874 31.0428 25.9778 32.4931 26.2337V29.8822C32.0936 29.9618 31.6948 30.0335 31.299 30.0964C31.4858 29.3936 31.5055 28.5533 31.0728 28.0518C30.6086 27.5133 29.7476 27.4349 28.7106 27.8366C27.7619 28.2044 26.8366 28.9329 26.2354 29.7852C26.1018 29.974 25.9816 30.1679 25.8751 30.3651C25.0051 30.2612 23.8861 29.8101 23.2549 29.0029ZM34.569 38.9341V42.3128L34.0003 42.4799L33.4306 42.3126V38.9339L33.9994 38.6869L34.569 38.9341ZM35.8498 39.4901C37.1708 40.0627 37.6229 40.5665 37.6055 40.8469C37.5874 41.1382 37.0425 41.5866 35.8656 41.9318L35.5065 42.0373V39.341L35.8498 39.4901ZM30.3941 40.8469C30.3768 40.5664 30.8288 40.0627 32.15 39.49L32.4931 39.341V42.0373L32.1338 41.9317C30.9571 41.5866 30.4121 41.1381 30.3941 40.8469ZM39.9103 41.0522C39.87 42.0363 38.9628 42.9168 37.4138 43.4815L35.6644 42.9681L36.1298 42.8313C37.6571 42.3833 38.4909 41.7171 38.5413 40.9048C38.5928 40.0728 37.8344 39.3286 36.2229 38.63L28.2589 35.1734C27.1887 34.7095 26.5306 34.0621 26.3031 33.2491C26.0598 32.3799 26.3208 31.2872 27.0011 30.3261C27.0013 30.3259 27.0014 30.3257 27.0016 30.3255C27.5006 29.6181 28.2661 29.0144 29.0495 28.7107C29.6471 28.4792 30.1871 28.4599 30.3629 28.6639C30.5888 28.9258 30.4916 29.8443 30.1779 30.4171C30.0481 30.652 29.783 30.9691 29.2574 31.1458C28.3012 31.4686 27.8032 31.9308 27.7774 32.5193C27.7365 33.4504 28.9189 34.1684 29.9181 34.6067L36.2476 37.3817C38.5929 38.4094 39.9621 39.7816 39.9103 41.0522ZM41.6968 33.2495C41.4693 34.0624 40.8118 34.7096 39.7423 35.1735L36.6281 36.525C36.6267 36.5244 36.6253 36.5238 36.6239 36.5231L35.167 35.8844L38.0813 34.6068C39.0811 34.1687 40.2643 33.4511 40.2234 32.5197C40.1976 31.9309 39.6992 31.4688 38.7419 31.1458C38.2163 30.9685 37.9514 30.6517 37.8226 30.4189C37.5081 29.8443 37.4108 28.9258 37.6361 28.6647C37.8157 28.4575 38.3446 28.476 38.9515 28.7106C39.7341 29.0146 40.4992 29.6183 40.9986 30.3262C41.6789 31.2874 41.9399 32.3802 41.6968 33.2495Z" fill="white"/>
</svg>
