<svg width="67" height="67" viewBox="0 0 67 67" fill="none" xmlns="http://www.w3.org/2000/svg">
<circle cx="33.5" cy="33.5" r="32.5" stroke="white" stroke-width="2"/>
<path d="M35.6562 29.6172C36.023 29.6172 36.3203 29.3199 36.3203 28.9531C36.3203 28.5864 36.023 28.2891 35.6562 28.2891C35.2895 28.2891 34.9922 28.5864 34.9922 28.9531C34.9922 29.3199 35.2895 29.6172 35.6562 29.6172Z" fill="white"/>
<path d="M30.3438 29.6172C30.7105 29.6172 31.0078 29.3199 31.0078 28.9531C31.0078 28.5864 30.7105 28.2891 30.3438 28.2891C29.977 28.2891 29.6797 28.5864 29.6797 28.9531C29.6797 29.3199 29.977 29.6172 30.3438 29.6172Z" fill="white"/>
<path d="M33.0004 35.5939C34.1239 35.5939 35.1305 34.8823 35.5051 33.8231C35.6274 33.4773 35.4462 33.0979 35.1004 32.9756C34.7548 32.8535 34.3753 33.0345 34.2529 33.3803C34.0657 33.9099 33.5623 34.2658 33.0004 34.2658C32.4385 34.2658 31.9351 33.9099 31.7478 33.3803C31.6256 33.0345 31.2461 32.8535 30.9004 32.9756C30.5546 33.0979 30.3734 33.4773 30.4957 33.8231C30.8703 34.8823 31.8769 35.5939 33.0004 35.5939Z" fill="white"/>
<path d="M39.6406 51C40.0074 51 40.3047 50.7027 40.3047 50.3359C40.3047 49.9692 40.0074 49.6719 39.6406 49.6719C39.2739 49.6719 38.9766 49.9692 38.9766 50.3359C38.9766 50.7027 39.2739 51 39.6406 51Z" fill="white"/>
<path d="M42.6289 49.6719C42.2621 49.6719 41.9648 49.9692 41.9648 50.3359C41.9648 50.7026 42.2621 51 42.6289 51H44.9531C45.3199 51 45.6172 50.7026 45.6172 50.3359V44.8495C45.6172 41.8731 43.4266 39.3534 40.4858 38.9334L37.8178 38.5523C37.095 38.4484 36.5027 37.9043 36.3557 37.1727C37.7554 36.252 39.0315 34.7719 40.0045 32.9375H40.3047C41.7693 32.9375 42.9609 31.7459 42.9609 30.2812C42.9609 29.2885 42.3944 28.3871 41.5332 27.936C41.5332 27.936 41.6328 25.6424 41.6328 25.6328C41.6328 20.8726 37.7601 17 33 17C28.2399 17 24.3672 20.8726 24.3672 25.6328C24.3672 25.6424 24.3674 25.6521 24.3678 25.6617L24.4667 27.936C23.6056 28.3871 23.0391 29.2885 23.0391 30.2812C23.0391 31.7459 24.2307 32.9375 25.6953 32.9375H25.9955C26.9686 34.772 28.2448 36.2522 29.6443 37.1727C29.4983 37.899 28.9084 38.4479 28.1828 38.5522L25.5144 38.9334C22.5684 39.3541 20.3828 41.878 20.3828 44.8495V50.3359C20.3828 50.7026 20.6801 51 21.0469 51H36.6523C37.0191 51 37.3164 50.7026 37.3164 50.3359C37.3164 49.9692 37.0191 49.6719 36.6523 49.6719H33.6641V44.4594L37.3763 39.8185C37.4598 39.8376 37.544 39.8547 37.6296 39.8669L38.9766 40.0594V44.4736C38.2037 44.7477 37.6484 45.4858 37.6484 46.3516C37.6484 47.4501 38.5421 48.3438 39.6406 48.3438C40.7391 48.3438 41.6328 47.4501 41.6328 46.3516C41.6328 45.4859 41.0776 44.7477 40.3047 44.4736V40.2493C42.5766 40.5773 44.2891 42.5536 44.2891 44.8495V49.6719H42.6289ZM33 43.1635L29.8521 39.228C30.3139 38.861 30.6587 38.3693 30.8465 37.8118C31.5552 38.1024 32.2764 38.25 33 38.25C33.7236 38.25 34.4447 38.1024 35.1534 37.8119C35.3414 38.3698 35.6862 38.8618 36.1478 39.2286L33 43.1635ZM33 18.3281C37.0232 18.3281 40.2971 21.5972 40.3047 25.6187L40.2223 27.512C39.4969 27.2483 38.9766 26.5513 38.9766 25.7371V25.6328C38.9766 25.2661 38.6793 24.9688 38.3125 24.9688H35.971C34.3915 24.9688 32.9718 24.0916 32.2658 22.6796C32.1281 22.4041 31.8189 22.2596 31.5193 22.3302C31.2196 22.401 31.0078 22.6686 31.0078 22.9766C31.0078 24.0751 30.1141 24.9688 29.0156 24.9688H27.6875C27.3207 24.9688 27.0234 25.2661 27.0234 25.6328V25.7371C27.0234 26.5517 26.5025 27.249 25.7779 27.5124L25.6953 25.6187C25.7029 21.5972 28.9768 18.3281 33 18.3281ZM26.9962 31.9785C26.8841 31.7525 26.6536 31.6094 26.4012 31.6094H25.6953C24.963 31.6094 24.3672 31.0136 24.3672 30.2812C24.3672 29.2237 25.375 29.0198 25.5126 28.9303C26.9224 28.7645 28.0579 27.681 28.3026 26.2969H29.0156C30.2829 26.2969 31.3867 25.5831 31.9461 24.5366C32.9644 25.6468 34.4085 26.2969 35.971 26.2969H37.6974C37.942 27.68 39.0764 28.763 40.487 28.93C40.6208 29.0173 41.6328 29.2284 41.6328 30.2812C41.6328 31.0136 41.037 31.6094 40.3047 31.6094H39.5988C39.3464 31.6094 39.1159 31.7524 39.0038 31.9785C37.8352 34.336 35.6335 36.9219 33 36.9219C30.3742 36.9219 28.1826 34.372 26.9962 31.9785V31.9785ZM21.7109 49.6719V44.8495C21.7109 42.5537 23.4232 40.5775 25.6953 40.2494V42.3012C24.1816 42.6097 23.0391 43.9512 23.0391 45.5547V47.6797C23.0391 48.0464 23.3364 48.3438 23.7031 48.3438H25.0312C25.398 48.3438 25.6953 48.0464 25.6953 47.6797C25.6953 47.313 25.398 47.0156 25.0312 47.0156H24.3672V45.5547C24.3672 44.4562 25.2609 43.5625 26.3594 43.5625C27.4579 43.5625 28.3516 44.4562 28.3516 45.5547V47.0156H27.6875C27.3207 47.0156 27.0234 47.313 27.0234 47.6797C27.0234 48.0464 27.3207 48.3438 27.6875 48.3438H29.0156C29.3824 48.3438 29.6797 48.0464 29.6797 47.6797V45.5547C29.6797 43.9512 28.5372 42.6097 27.0234 42.3012V40.0594L28.3708 39.8669C28.4562 39.8546 28.5403 39.8377 28.6235 39.8186L32.3359 44.4594V49.6719H21.7109ZM39.6406 47.0156C39.2745 47.0156 38.9766 46.7177 38.9766 46.3516C38.9766 45.9854 39.2745 45.6875 39.6406 45.6875C40.0068 45.6875 40.3047 45.9854 40.3047 46.3516C40.3047 46.7177 40.0068 47.0156 39.6406 47.0156Z" fill="white"/>
</svg>
