<svg width="67" height="67" viewBox="0 0 67 67" fill="none" xmlns="http://www.w3.org/2000/svg">
<circle cx="33.5" cy="33.5" r="32.5" stroke="white" stroke-width="2"/>
<path d="M49.2702 49.1971C49.2426 49.106 49.1967 49.0215 49.1353 48.9487C49.074 48.876 48.9984 48.8165 48.9132 48.7739L46.4012 47.5179L45.9936 45.8873C45.6979 44.7115 45.1419 43.6171 44.3666 42.685C43.5914 41.7528 42.6166 41.0067 41.5144 40.5017L41.5006 40.4324C41.096 38.4101 40.4334 36.4482 39.529 34.5948C39.6893 33.5184 39.4935 32.4191 38.9714 31.4642C38.4493 30.5094 37.6294 29.7513 36.6366 29.3054L36.3927 27.5975L39.2952 24.695C39.3671 24.6231 39.4224 24.5364 39.4574 24.441C39.4924 24.3455 39.5062 24.2436 39.4978 24.1423C39.4894 24.041 39.4591 23.9427 39.4089 23.8543C39.3587 23.7659 39.2898 23.6895 39.2071 23.6304L35.1594 20.7392C35.0046 20.3288 34.7321 19.9732 34.3761 19.7171L34.1084 18.6464C34.1113 18.6483 34.114 18.6505 34.1169 18.6525L34.3451 18.8046C34.7951 19.1053 35.3 19.3144 35.8308 19.42L38.6629 19.9864C38.8102 20.0159 38.9631 19.9971 39.099 19.933C39.2349 19.8689 39.3465 19.7627 39.4174 19.6303C39.4882 19.4978 39.5146 19.3461 39.4926 19.1974C39.4706 19.0488 39.4014 18.9112 39.2952 18.805L38.5492 18.059C37.7632 17.2745 37.2278 16.2743 37.0111 15.1851C36.9372 14.8147 36.7723 14.4684 36.5313 14.1776C36.2903 13.8868 35.9807 13.6605 35.6304 13.5192C35.2801 13.3779 34.9001 13.326 34.5247 13.3681C34.1494 13.4103 33.7904 13.5452 33.4802 13.7607C32.9609 13.2714 32.2741 12.9992 31.5606 13H31.1002C30.3789 13.0009 29.6856 13.2797 29.1646 13.7786C28.6436 14.2775 28.335 14.958 28.3028 15.6786L27.6361 17.6786C27.6011 17.7838 27.5915 17.8959 27.6082 18.0055C27.6249 18.1152 27.6675 18.2193 27.7323 18.3093C27.7972 18.3993 27.8825 18.4725 27.9812 18.5231C28.08 18.5736 28.1893 18.6 28.3002 18.6H28.5676L29.0741 19.6131C29.1323 19.7294 29.2216 19.8271 29.3322 19.8955C29.4428 19.9638 29.5702 20 29.7002 20H30.4389C30.1824 20.2056 29.9591 20.4494 29.7769 20.723L28.8197 22.1588C28.5536 22.559 28.3948 23.0208 28.3584 23.5H27.6002C27.6002 23.3439 27.548 23.1923 27.452 23.0692C27.3559 22.9462 27.2214 22.8588 27.07 22.8209L24.27 22.1209C24.1808 22.0986 24.0881 22.0941 23.9972 22.1076C23.9063 22.1212 23.8189 22.1525 23.7401 22.1997C23.6612 22.247 23.5925 22.3094 23.5378 22.3833C23.483 22.4571 23.4434 22.541 23.4211 22.6302L22.7211 25.4302C22.6783 25.6013 22.7017 25.7822 22.7866 25.9369C22.8714 26.0915 23.0115 26.2083 23.1788 26.2641L25.2788 26.9641C25.3502 26.9879 25.425 27 25.5002 27H26.1021L30.7945 28.3407L31.1002 29.8694V31.5721L30.2877 32.2492C28.151 34.0284 26.3295 36.1551 24.9 38.5398C24.8331 38.6513 24.7986 38.7792 24.8003 38.9092C24.802 39.0392 24.8398 39.1661 24.9096 39.2758L29.5648 46.5912L27.886 49.1094C27.5545 49.608 27.3604 50.1852 27.3232 50.7828C27.286 51.3804 27.407 51.9772 27.6741 52.5131C27.7164 52.5976 27.7753 52.6727 27.8474 52.7338C27.9194 52.7949 28.0031 52.8408 28.0933 52.8687C28.1836 52.8967 28.2786 52.906 28.3726 52.8962C28.4665 52.8865 28.5576 52.8578 28.6402 52.8119L34.9402 49.3119C35.0349 49.2593 35.1161 49.1854 35.1774 49.0961C35.2387 49.0067 35.2784 48.9044 35.2934 48.7971C35.3085 48.6898 35.2984 48.5804 35.264 48.4777C35.2296 48.3749 35.1718 48.2816 35.0952 48.205L32.4601 45.57L31.7931 40.901C31.7717 40.751 31.7022 40.6121 31.5952 40.505L30.1819 39.0917L34.0937 37.1359L37.4839 43.4319C37.5227 43.504 37.5739 43.5688 37.6351 43.6232L43.635 48.9564L43.0796 51.7337C42.6284 51.9928 42.2539 52.3668 41.9941 52.8175C41.7342 53.2682 41.5983 53.7797 41.6002 54.3C41.6002 54.4856 41.674 54.6637 41.8052 54.795C41.9365 54.9262 42.1145 55 42.3002 55H45.8002C45.9236 55 46.0448 54.9674 46.1516 54.9054C46.2583 54.8435 46.3467 54.7544 46.408 54.6473L49.208 49.7473C49.2552 49.6646 49.2851 49.5732 49.2958 49.4786C49.3065 49.384 49.2977 49.2882 49.2702 49.1971ZM32.3741 29.1L32.2341 28.4H33.2002C33.3563 28.4 33.5079 28.3478 33.631 28.2517C33.754 28.1557 33.8414 28.0212 33.8793 27.8698L34.6035 24.973L35.1931 29.1L32.3741 29.1ZM36.1452 25.8651L35.7154 22.8568L37.7209 24.2893L36.1452 25.8651ZM35.247 14.8901C35.3477 14.9533 35.4343 15.0364 35.5016 15.1344C35.5689 15.2323 35.6154 15.343 35.6382 15.4597C35.8344 16.4453 36.2405 17.3771 36.8288 18.1918L36.1054 18.0471C35.7539 17.9773 35.4196 17.8388 35.1217 17.6396L34.8934 17.4875C34.6682 17.3369 34.4722 17.1468 34.3148 16.9262C34.4375 16.3292 34.4246 15.7122 34.277 15.1209C34.2625 15.0627 34.2456 15.0057 34.2277 14.9493C34.3699 14.8338 34.5449 14.7659 34.7278 14.7553C34.9107 14.7447 35.0924 14.7919 35.247 14.8901V14.8901ZM31.5606 14.4C31.8729 14.3996 32.1763 14.5039 32.4225 14.6961C32.6686 14.8883 32.8434 15.1574 32.9188 15.4604C33.0295 15.9045 33.0242 16.3696 32.9035 16.811C32.0862 16.1429 31.3953 15.3336 30.8638 14.4215C30.9418 14.4077 31.0209 14.4005 31.1002 14.4H31.5606ZM31.7866 19.1628C31.7549 19.0041 31.6692 18.8613 31.544 18.7587C31.4189 18.6561 31.262 18.6 31.1002 18.6H30.1328L29.6263 17.5869C29.5488 17.432 29.4167 17.3112 29.2553 17.2481L29.6643 16.0214C29.6881 15.95 29.7002 15.8753 29.7002 15.8C29.7005 15.6419 29.7278 15.485 29.7809 15.3361C30.5042 16.5118 31.4581 17.5288 32.5851 18.3258L32.8326 19.3157C32.818 19.3174 32.8036 19.3197 32.7891 19.3216C32.468 19.2833 32.143 19.2959 31.8258 19.3589L31.7866 19.1628ZM29.9846 22.9354L30.8069 21.7018L30.5072 23.5H29.7657C29.7964 23.298 29.8711 23.1052 29.9846 22.9354ZM26.2002 25.6H25.6138L24.2365 25.1409L24.6095 23.6489L26.2002 24.0465V24.2C26.2002 24.3857 26.274 24.5637 26.4052 24.695C26.5365 24.8262 26.7145 24.9 26.9002 24.9H30.8103L31.3052 25.395L32.2952 24.405L31.8499 23.9597L32.2796 21.3818C32.3132 21.1798 32.4216 20.9979 32.5831 20.8721C32.7446 20.7464 32.9476 20.6859 33.1516 20.7028C33.3556 20.7197 33.5459 20.8126 33.6846 20.9633C33.8232 21.1139 33.9002 21.3111 33.9002 21.5159V21.9134C33.9002 21.9801 33.892 22.0466 33.8758 22.1113L32.6537 27H31.1983L26.3925 25.6269C26.33 25.6091 26.2652 25.6 26.2002 25.6ZM28.7233 51.1642C28.6848 50.7133 28.8002 50.2627 29.0509 49.8859L30.8795 47.1429L31.662 46.7517L33.449 48.5388L28.7233 51.1642ZM33.8165 33.6681L32.5839 34.3319L33.4297 35.9027L28.6872 38.2739C28.588 38.3235 28.502 38.396 28.4363 38.4853C28.3706 38.5747 28.327 38.6784 28.3093 38.7879C28.2915 38.8974 28.3 39.0095 28.3341 39.1151C28.3681 39.2206 28.4268 39.3166 28.5052 39.395L30.4402 41.33L31.0359 45.4995L30.6518 45.6916L26.3254 38.8929C27.6388 36.7905 29.2789 34.9109 31.1839 33.3247L32.2483 32.4377C32.3272 32.372 32.3906 32.2898 32.4341 32.1969C32.4776 32.104 32.5002 32.0026 32.5002 31.9V30.5H35.8653L35.9262 30.5244C36.7051 30.836 37.3503 31.4104 37.7499 32.1481C38.1495 32.8858 38.2783 33.74 38.1138 34.5627C38.0833 34.7153 38.1045 34.8738 38.1741 35.0131C39.0754 36.8158 39.7324 38.7306 40.1277 40.7069L40.2138 41.1372C40.2366 41.2514 40.2876 41.3581 40.362 41.4476C40.4365 41.5371 40.5321 41.6067 40.6402 41.6499C41.6201 42.0434 42.4929 42.6632 43.1873 43.4587C43.8817 44.2542 44.3779 45.2028 44.6354 46.2268L44.9849 47.625L44.511 47.8619L38.6578 42.6591L33.8165 33.6681ZM45.394 53.6H43.1638C43.3154 53.2965 43.5617 53.0508 43.8655 52.9L44.0133 52.8261C44.1086 52.7784 44.1918 52.7096 44.2565 52.6249C44.3212 52.5402 44.3657 52.4418 44.3866 52.3373L45.0195 49.173L45.8002 48.7826L47.6253 49.6951L45.394 53.6Z" fill="white"/>
</svg>
