<svg width="67" height="67" viewBox="0 0 67 67" fill="none" xmlns="http://www.w3.org/2000/svg">
<circle cx="33.5" cy="33.5" r="32.5" stroke="white" stroke-width="2"/>
<path d="M22.2721 21.2721C25.6718 17.8723 30.1918 16 35 16C39.8082 16 44.3282 17.8723 47.7279 21.2721C51.1277 24.6718 53 29.1918 53 34C53 38.8079 51.1277 43.3282 47.7279 46.7279C44.3282 50.1277 39.8079 52 35 52C30.1921 52 25.6718 50.1277 22.2721 46.7279C18.8723 43.3282 17 38.8079 17 34C17 29.1918 18.8723 24.6718 22.2721 21.2721ZM35 18.1094C26.2379 18.1094 19.1094 25.2379 19.1094 34C19.1094 34.3018 19.1187 34.6018 19.1352 34.8995L19.2236 33.9629C19.2346 33.8668 19.2407 33.7767 19.2464 33.6891C19.2541 33.5721 19.2615 33.4617 19.2802 33.3697C19.3209 33.1661 19.3643 32.9475 19.4107 32.7146L19.4414 32.5591C19.4686 32.432 19.4909 32.3065 19.5126 32.1848C19.5433 32.0115 19.5727 31.847 19.6134 31.6901C19.6988 31.4105 19.7881 31.1164 19.882 30.8074L19.921 30.6791C20.308 29.5146 20.9663 27.7765 22.2133 26.0887C22.2155 26.0854 22.218 26.0822 22.2204 26.0789C23.527 24.2672 25.1925 22.7137 27.0368 21.586C29.2058 20.2781 31.7123 19.4772 34.2796 19.2739C34.2966 19.2723 34.3139 19.2706 34.3309 19.2684C34.476 19.2498 34.6572 19.2525 34.8492 19.255C34.9964 19.2569 35.1483 19.2591 35.3106 19.2533L35.8454 19.2456C35.8569 19.2454 35.8687 19.2451 35.8803 19.2445C36.0253 19.2374 36.1335 19.2407 36.2214 19.2542C36.2318 19.2558 36.2426 19.2572 36.253 19.2585C36.5007 19.2885 36.7444 19.3091 36.9803 19.3291C37.4565 19.3698 37.9064 19.408 38.3176 19.5156C38.3525 19.5247 38.3876 19.5318 38.4231 19.5376C39.578 19.7167 40.8044 20.1265 42.3963 20.865C42.7245 21.0408 43.0541 21.2169 43.385 21.3937C43.5331 21.4737 43.696 21.5868 43.8684 21.7068C43.9995 21.798 44.1351 21.8922 44.2823 21.9848L44.71 22.2644L45.1063 22.5921C45.2398 22.7069 45.3716 22.8112 45.4994 22.9126C45.6669 23.0455 45.8251 23.1713 45.9608 23.299C45.9635 23.3015 45.966 23.304 45.9685 23.3062C46.9718 24.2329 47.91 25.3785 48.7576 26.7117C49.452 27.8781 50.0194 29.2369 50.4443 30.7508C50.7143 31.8412 50.8596 33.0338 50.8857 34.3771C50.8887 34.2516 50.8906 34.1261 50.8906 34C50.8906 25.2379 43.7621 18.1094 35 18.1094ZM47.9073 43.2582C47.0569 44.3203 46.1588 45.2181 45.2343 45.929C45.2313 45.9312 45.2283 45.9336 45.2255 45.9358C45.0967 46.0369 44.9445 46.136 44.7833 46.241C44.6534 46.3258 44.5191 46.4135 44.3823 46.5112L44.0033 46.7727L43.5971 46.9861C43.4468 47.0619 43.3112 47.1396 43.1799 47.2146C43.0255 47.3031 42.8794 47.3868 42.7484 47.4431C42.4287 47.5714 42.1115 47.7049 41.8044 47.8403C40.7368 48.2177 39.4808 48.6093 38.2267 48.6832C38.1863 48.6857 38.1459 48.6904 38.1061 48.6972C37.7721 48.756 37.398 48.753 37.0017 48.7497C36.7768 48.748 36.5444 48.7461 36.3063 48.7552C36.2925 48.7557 36.2785 48.7566 36.2645 48.7577C36.2096 48.7621 36.1324 48.7563 36.0283 48.7404C36.0132 48.7382 35.9984 48.7362 35.9833 48.7346L35.5246 48.6852C35.3722 48.6648 35.2274 48.6547 35.0992 48.6456C34.9489 48.6352 34.8069 48.6253 34.7061 48.6019C34.6872 48.5975 34.6682 48.5937 34.649 48.5904C32.5325 48.2204 30.5244 47.3742 28.8411 46.1429C27.4598 45.1116 26.2535 43.7614 25.3526 42.2381C25.3502 42.234 25.3477 42.2299 25.3452 42.2257C24.5482 40.9192 24.1812 39.6505 23.9285 38.5797C23.8766 38.308 23.82 38.0391 23.7602 37.7796C23.7456 37.6851 23.7379 37.5771 23.7299 37.4634C23.7223 37.3566 23.7143 37.2459 23.7 37.1289L23.6302 36.5085C23.6297 36.5046 23.6292 36.5008 23.6289 36.4969C23.6248 36.4642 23.6278 36.392 23.6305 36.328C23.6335 36.2577 23.6371 36.1786 23.6355 36.0921C23.641 35.6378 23.6346 35.3304 23.6302 35.183C23.65 35.0355 23.6885 34.7306 23.7305 34.2851C23.7412 34.1983 23.7462 34.1198 23.7503 34.0497C23.7541 33.9885 23.7582 33.919 23.7654 33.8888C23.7662 33.8849 23.767 33.8811 23.7679 33.8772L23.9013 33.2757C23.9283 33.1606 23.9475 33.0524 23.9662 32.9481C23.9851 32.8407 24.0032 32.7385 24.0266 32.6506C24.1139 32.3985 24.1971 32.1433 24.2735 31.8909C24.6242 30.8947 25.1019 29.7252 25.9783 28.5843C25.9816 28.5799 25.9846 28.5758 25.9879 28.5717C26.9649 27.2599 28.1904 26.1464 29.5327 25.3513C31.1086 24.4391 32.9206 23.8907 34.7734 23.7646C34.7962 23.7629 34.819 23.7607 34.8415 23.7577C34.9039 23.7495 35.019 23.7544 35.1305 23.7596C35.2483 23.7649 35.3812 23.7709 35.5254 23.7665L35.916 23.7638C35.9344 23.7635 35.9531 23.7629 35.9717 23.7618C36.0558 23.7566 36.0915 23.7607 36.1055 23.7635C36.1192 23.7662 36.1332 23.7687 36.1472 23.7709C36.3738 23.8072 36.5897 23.8275 36.7982 23.8473C37.1017 23.8761 37.3879 23.903 37.6224 23.975C37.6694 23.9893 37.7175 24.0002 37.7661 24.0082C38.7365 24.162 39.7041 24.5897 40.5393 24.9841C40.7802 25.1255 41.0255 25.2609 41.2696 25.3867C41.3452 25.429 41.4399 25.4993 41.5402 25.5732C41.6432 25.6493 41.7593 25.7353 41.8895 25.8179L42.1727 26.0036L42.4292 26.2291C42.5451 26.3348 42.6613 26.4277 42.7635 26.5098C42.8676 26.5933 42.9659 26.6721 43.0401 26.7449C43.0434 26.7485 43.0469 26.7518 43.0502 26.7551C43.7328 27.4079 44.3664 28.2086 44.9871 29.2014C45.4433 30.0037 45.8127 30.9343 46.1154 32.0447C46.3063 32.8926 46.3876 33.8539 46.3711 35.0635C46.2396 36.2404 46.0421 37.1635 45.7512 37.9622C45.331 38.9694 44.8762 39.7931 44.3617 40.4792C43.6778 41.3106 43.0175 41.9574 42.3444 42.4562L42.3312 42.4661C42.2675 42.5147 42.1768 42.5696 42.0807 42.6276C41.9741 42.6918 41.8538 42.7646 41.7308 42.8522L41.4979 43.0118L41.2433 43.1335C41.1051 43.1967 40.9867 43.2639 40.8821 43.3235C40.7997 43.3702 40.7217 43.4145 40.6687 43.4362C40.4377 43.5175 40.2092 43.607 39.9886 43.7029C39.1347 43.9726 38.3643 44.1945 37.6128 44.2101C37.554 44.2115 37.4953 44.2176 37.4376 44.2288C37.2802 44.2588 37.0643 44.2505 36.8358 44.242C36.6521 44.2351 36.4439 44.2272 36.2288 44.2379C36.2189 44.2384 36.2093 44.239 36.1994 44.2398C36.192 44.2384 36.1802 44.2365 36.1624 44.2329C36.1404 44.2283 36.1184 44.2244 36.0962 44.2211L35.7811 44.1766C35.6441 44.1538 35.5197 44.1453 35.4186 44.1385C35.3623 44.1349 35.2848 44.1297 35.259 44.1239C35.2324 44.1162 35.2112 44.111 35.184 44.1055C33.7635 43.816 32.4811 43.2425 31.3718 42.401C30.486 41.7061 29.7153 40.7994 29.1418 39.7785C29.1382 39.7725 29.1347 39.7662 29.1311 39.7601C28.6502 38.943 28.4502 38.1493 28.2898 37.4052C28.2613 37.2198 28.2264 37.0377 28.1857 36.8628C28.1835 36.8301 28.1824 36.7815 28.1816 36.7403C28.1802 36.6636 28.1783 36.5697 28.1684 36.4675C28.1583 36.3264 28.144 36.1844 28.1259 36.0448C28.1267 36.0358 28.1278 36.027 28.1286 36.0185C28.1341 35.9649 28.1415 35.894 28.1429 35.8119C28.1558 35.5408 28.1547 35.3398 28.1511 35.2104C28.1747 35.083 28.2069 34.8849 28.2357 34.6199C28.2475 34.5359 28.2511 34.4642 28.2538 34.4095C28.2541 34.404 28.2544 34.3983 28.2547 34.3925C28.2945 34.2596 28.3299 34.1255 28.3612 33.9926C28.3879 33.8918 28.4044 33.7992 28.4178 33.724C28.4239 33.6891 28.4313 33.6476 28.4373 33.6199C28.5057 33.4543 28.567 33.2867 28.6205 33.1203C28.8823 32.4542 29.186 31.7508 29.7307 31.0952C29.7356 31.0892 29.7403 31.0834 29.7452 31.0774C30.1957 30.5102 30.9551 29.7115 32.0156 29.1232C33.0046 28.5988 34.0942 28.3072 35.2543 28.2563C35.2752 28.2555 35.2964 28.2539 35.3172 28.2517C35.3365 28.2533 35.3658 28.2566 35.3886 28.2591C35.4738 28.2684 35.5872 28.2808 35.7163 28.28C35.8097 28.283 35.9047 28.2835 36.0066 28.2816C36.0154 28.2813 36.0242 28.2811 36.0327 28.2805C36.2242 28.3242 36.3988 28.344 36.554 28.3613C36.6804 28.3753 36.8237 28.3915 36.8842 28.4156C36.9553 28.4442 37.0294 28.4651 37.105 28.4777C37.5785 28.5565 38.0638 28.7961 38.5777 29.0498L38.6686 29.0946C38.8183 29.1946 38.9732 29.286 39.1303 29.3671C39.1476 29.3808 39.1765 29.4052 39.1984 29.4239C39.2687 29.4832 39.3629 29.5632 39.4791 29.6393C39.5275 29.6733 39.5769 29.7068 39.6269 29.7392L39.7252 29.8381C39.8277 29.9444 39.9265 30.0251 40.0065 30.0902C40.0408 30.1185 40.088 30.157 40.1021 30.1718C40.107 30.177 40.1114 30.1817 40.1163 30.1869C40.5728 30.6593 40.9381 31.2265 41.2078 31.6753C41.483 32.2161 41.6525 32.8058 41.7816 33.318C41.8708 33.8401 41.8689 34.4005 41.8538 35.0217C41.756 35.5609 41.6418 36.1204 41.4482 36.601C41.2199 37.0542 40.9628 37.5261 40.6352 37.9328C40.3006 38.2855 39.904 38.6796 39.4769 38.968C39.4736 38.9705 39.4701 38.9727 39.4668 38.9752C39.4533 38.9826 39.4253 38.9963 39.4044 39.0067C39.3201 39.0485 39.2056 39.1051 39.0836 39.1902L39.0279 39.2278C38.9913 39.2413 38.9551 39.2556 38.9194 39.2699C38.784 39.3201 38.6779 39.3792 38.6057 39.4196C38.6016 39.4218 38.5977 39.424 38.5936 39.4264C38.4579 39.4613 38.3286 39.5031 38.2031 39.5533C38.1391 39.5681 38.0753 39.5833 38.0125 39.5984C37.6458 39.686 37.3291 39.761 37.0583 39.7417C36.9696 39.7354 36.8803 39.7401 36.793 39.756C36.7622 39.7541 36.7086 39.7478 36.6674 39.7431C36.5507 39.7294 36.4104 39.7132 36.2508 39.7159C36.1893 39.7003 36.1266 39.6862 36.064 39.6742C35.9404 39.6456 35.8339 39.6374 35.7616 39.6327C35.0585 39.4341 34.4592 39.1232 33.9305 38.6829C33.4323 38.2352 33.1219 37.7153 32.9491 37.3569C32.9431 37.3448 32.937 37.3327 32.9307 37.3209C32.7643 37.0072 32.7162 36.6812 32.6695 36.3662C32.6646 36.3316 32.6594 36.2978 32.6544 36.2648C32.619 35.8537 32.6445 35.5551 32.6599 35.3752C32.664 35.3274 32.669 35.267 32.6698 35.1989C32.6791 35.1407 32.6893 35.0698 32.6984 34.9866C32.7017 34.9621 32.7039 34.9393 32.7055 34.9196C32.7173 34.8773 32.7283 34.8341 32.7387 34.791C32.7522 34.7377 32.7613 34.691 32.7679 34.6556C32.7909 34.5963 32.8123 34.5367 32.8318 34.4768C32.928 34.234 33.0307 33.9995 33.2026 33.7926C33.2073 33.7869 33.2122 33.7811 33.2169 33.7751C33.3748 33.5765 33.6388 33.298 34.0024 33.0953C34.3405 32.9167 34.7141 32.8168 35.1134 32.7975C35.1568 32.8022 35.217 32.8074 35.2881 32.8077C35.3161 32.8085 35.3444 32.8094 35.3744 32.8088C35.4573 32.8242 35.5298 32.8322 35.5869 32.8387C35.6001 32.8401 35.6133 32.8415 35.6265 32.8431C35.6801 32.861 35.7347 32.8747 35.7905 32.8841C35.9047 32.903 36.0734 32.9862 36.2519 33.0744L36.2579 33.0774C36.3093 33.1107 36.362 33.1422 36.4156 33.1716C36.4513 33.2016 36.5013 33.2419 36.5636 33.2837C36.5699 33.2878 36.576 33.2922 36.5823 33.2966C36.6482 33.3642 36.7095 33.4142 36.7474 33.4452L36.7531 33.4499C36.8951 33.5995 37.0187 33.7896 37.114 33.9467C37.1962 34.114 37.2525 34.3071 37.2967 34.4804C37.3206 34.6339 37.3214 34.8127 37.3167 35.0237C37.2786 35.228 37.2426 35.3865 37.1942 35.5134C37.1217 35.6562 37.0369 35.8111 36.9421 35.9336C36.8333 36.0473 36.71 36.1687 36.59 36.2547C36.5521 36.2736 36.4955 36.3027 36.4321 36.3439C36.3785 36.3648 36.3332 36.3865 36.2969 36.4052C36.2582 36.4167 36.2198 36.4296 36.1821 36.4436C36.1673 36.4469 36.1527 36.4505 36.1382 36.4538C36.0572 36.4733 35.9459 36.4999 35.9088 36.5002C35.3277 36.4585 34.825 36.8943 34.7827 37.4753C34.7402 38.0562 35.1794 38.5618 35.7603 38.6041C35.8113 38.6079 35.8616 38.6096 35.9105 38.6096C36.1926 38.6096 36.4307 38.5527 36.6279 38.5055C36.6617 38.4975 36.6955 38.4896 36.7298 38.4816C36.791 38.4679 36.8512 38.4486 36.9091 38.4239C36.9215 38.4212 36.9341 38.4179 36.9462 38.4143C37.0792 38.3775 37.1813 38.3253 37.2412 38.2926C37.3343 38.2624 37.4222 38.2196 37.5035 38.1649L37.5532 38.1314C37.5988 38.1086 37.6724 38.0707 37.7534 38.0147C38.0583 37.8073 38.3039 37.5634 38.5041 37.3517C38.5214 37.3335 38.5379 37.3146 38.5538 37.2951C38.7963 36.9987 38.9658 36.6864 39.0993 36.4203C39.1108 36.3972 39.1215 36.3739 39.1314 36.35C39.2786 35.9937 39.3509 35.6306 39.4072 35.3181C39.4168 35.2651 39.4223 35.2115 39.4234 35.1577C39.4324 34.8012 39.4349 34.4504 39.3679 34.0769C39.3638 34.0536 39.3586 34.0302 39.3528 34.0069C39.2797 33.7152 39.1707 33.3315 38.9746 32.9516C38.9644 32.9321 38.9534 32.9126 38.9422 32.8937C38.7856 32.6325 38.5673 32.293 38.2657 31.9793C38.1929 31.9022 38.1242 31.8461 38.0828 31.8121L38.074 31.8049L37.9973 31.728C37.9377 31.6684 37.8713 31.6162 37.7993 31.5723C37.7894 31.5663 37.7793 31.5597 37.7697 31.5528C37.7664 31.5506 37.7628 31.5481 37.7595 31.5459L37.7565 31.5432C37.7029 31.4979 37.6136 31.4226 37.4873 31.3526C37.476 31.3465 37.4648 31.3405 37.4532 31.3347C37.4299 31.3229 37.4079 31.3097 37.3857 31.2943C37.3426 31.2644 37.297 31.2378 37.2497 31.2144L37.1852 31.1828C36.9281 31.0559 36.6128 30.9002 36.2349 30.8217C36.069 30.77 35.924 30.7538 35.8212 30.7423C35.8034 30.7404 35.785 30.7387 35.7671 30.736C35.6405 30.7044 35.5106 30.692 35.3719 30.6994C35.3615 30.6992 35.3502 30.6994 35.3395 30.6989C35.3332 30.6986 35.3268 30.6986 35.3208 30.6983H35.3205C35.2543 30.6912 35.139 30.6786 34.9967 30.6915C34.287 30.7277 33.6168 30.9109 33.0041 31.2369C32.9991 31.2394 32.9942 31.2422 32.9892 31.2449C32.4602 31.5371 31.9702 31.9552 31.572 32.4539C31.1666 32.9456 30.965 33.4592 30.8565 33.7361C30.8477 33.7583 30.8398 33.7811 30.8323 33.8042C30.8194 33.8451 30.8049 33.8846 30.7876 33.9253C30.7758 33.9536 30.765 33.9821 30.7557 34.011C30.7206 34.1192 30.7041 34.212 30.6942 34.2675L30.692 34.2796C30.6906 34.2851 30.6892 34.2906 30.6881 34.2958C30.6799 34.3299 30.6708 34.3647 30.6596 34.4018C30.6151 34.5518 30.6068 34.6735 30.6035 34.7377C30.6033 34.7399 30.603 34.7421 30.6027 34.7446C30.5945 34.8218 30.586 34.8715 30.5824 34.8904C30.5824 34.891 30.5824 34.8915 30.5821 34.8921C30.5813 34.8965 30.5807 34.8992 30.5807 34.8992L30.581 34.8973C30.5591 34.9948 30.5503 35.097 30.5574 35.2014C30.5385 35.4238 30.5005 35.8803 30.5566 36.4881C30.5585 36.5101 30.561 36.5318 30.5645 36.5535C30.5706 36.5925 30.5766 36.6329 30.5827 36.6743C30.6409 37.069 30.7288 37.6631 31.0576 38.291C31.4261 39.0496 31.9381 39.7329 32.5385 40.2682C32.5465 40.2751 32.5547 40.282 32.5627 40.2888C33.3169 40.9217 34.1628 41.3674 35.1469 41.6509C35.3444 41.7206 35.5169 41.7311 35.615 41.7371C35.6177 41.7371 35.6205 41.7374 35.6232 41.7377C35.6334 41.7396 35.6432 41.7418 35.6534 41.7434C35.6776 41.7478 35.7009 41.7528 35.724 41.7585C35.9207 41.8217 36.1093 41.8442 36.2972 41.8253C36.3266 41.8269 36.3821 41.8333 36.4241 41.8382C36.5323 41.8508 36.6622 41.8659 36.8083 41.8659C36.8814 41.8659 36.9583 41.8621 37.0388 41.8525C37.5804 41.8701 38.0679 41.7536 38.5016 41.6503C38.5865 41.63 38.6719 41.6097 38.7584 41.5899C38.8252 41.5748 38.8905 41.5534 38.9532 41.5256C39.0133 41.499 39.0789 41.4778 39.1534 41.4608C39.1693 41.4572 39.1852 41.4531 39.2009 41.4487C39.3945 41.3949 39.5387 41.3144 39.634 41.2611C39.6453 41.2548 39.6566 41.2482 39.6678 41.2422C39.6807 41.2375 39.6931 41.2323 39.7057 41.2271C39.742 41.212 39.7818 41.1974 39.8238 41.1842C39.9189 41.1537 40.0092 41.1098 40.0922 41.054L40.2712 40.9332C40.2748 40.931 40.2781 40.9288 40.2814 40.9263C40.3004 40.9159 40.3204 40.9068 40.3402 40.8969C40.4261 40.8544 40.5426 40.7967 40.6673 40.7094C41.271 40.2996 41.778 39.7942 42.1947 39.3534C42.2117 39.3352 42.2282 39.3166 42.2438 39.2973C42.7231 38.7129 43.0725 38.0663 43.3513 37.511C43.3628 37.4882 43.3735 37.4648 43.3831 37.4412C43.6748 36.7359 43.8201 36.0045 43.9437 35.3156C43.9533 35.2629 43.9585 35.2096 43.9599 35.1563C43.9802 34.3719 43.986 33.6616 43.8517 32.9118C43.8473 32.8882 43.8423 32.8648 43.8366 32.8418C43.6745 32.1947 43.4565 31.4317 43.0667 30.678C43.0565 30.6585 43.0458 30.639 43.0346 30.6203C42.7064 30.0727 42.2515 29.3632 41.6396 28.7279C41.5311 28.612 41.4254 28.5258 41.3402 28.4563C41.3053 28.428 41.2578 28.389 41.2435 28.3739C41.2378 28.3679 41.2317 28.3618 41.2257 28.3558L41.0359 28.1654C40.9763 28.1058 40.9101 28.0536 40.8381 28.0097C40.7851 27.9773 40.7327 27.9427 40.6821 27.907C40.6662 27.8954 40.65 27.8845 40.6332 27.874C40.6242 27.8674 40.5874 27.8361 40.5605 27.8133C40.4643 27.732 40.3328 27.6205 40.1578 27.5241C40.1463 27.5178 40.1345 27.5115 40.1227 27.5057C40.0117 27.4497 39.9059 27.3868 39.7999 27.3134C39.7565 27.2835 39.7112 27.2569 39.6642 27.2338L39.5107 27.158C38.9378 26.8754 38.2918 26.5565 37.5543 26.4153C37.2706 26.3189 37.0058 26.2892 36.7878 26.2648C36.6839 26.253 36.5853 26.242 36.5109 26.2261C36.3321 26.1769 36.1442 26.1593 35.9391 26.1728C35.8775 26.1733 35.8204 26.1728 35.766 26.1709C35.7449 26.17 35.7234 26.1698 35.7023 26.1703C35.6858 26.1695 35.6468 26.1651 35.6177 26.1621C35.4974 26.1489 35.3219 26.1297 35.1203 26.1505C33.6561 26.2206 32.2759 26.5952 31.0172 27.2646C31.0122 27.2673 31.007 27.2701 31.0021 27.2728C29.9213 27.8702 28.918 28.7288 28.1 29.756C27.351 30.6607 26.9555 31.5855 26.6435 32.382C26.6347 32.404 26.627 32.4265 26.6199 32.449C26.5762 32.5872 26.5268 32.7212 26.4683 32.8596C26.4565 32.8874 26.446 32.9154 26.4367 32.9439C26.3845 33.1043 26.3587 33.2491 26.34 33.3548C26.3337 33.39 26.3252 33.438 26.3208 33.4543C26.317 33.4685 26.3134 33.4825 26.3101 33.4971C26.2845 33.6067 26.2546 33.7179 26.2208 33.8281C26.22 33.8311 26.2192 33.8338 26.2184 33.8369C26.1601 34.0332 26.1516 34.2027 26.1464 34.3038C26.1461 34.3134 26.1456 34.3227 26.145 34.3318C26.1431 34.3455 26.1414 34.3593 26.1398 34.3733C26.1049 34.7048 26.064 34.8871 26.0634 34.8891C26.0363 35.0039 26.0299 35.1184 26.0401 35.2294C26.0426 35.2832 26.0481 35.4527 26.0343 35.7287C26.0335 35.7422 26.0332 35.7559 26.033 35.7693C26.0319 35.7801 26.0308 35.7913 26.0297 35.8029C26.0192 35.9042 26.0016 36.0742 26.0277 36.2744C26.028 36.2772 26.0286 36.2802 26.0288 36.2832C26.0448 36.3983 26.0566 36.5115 26.0645 36.629C26.0654 36.6433 26.0667 36.6576 26.0681 36.6716C26.07 36.69 26.0711 36.7427 26.072 36.7815C26.0742 36.8927 26.0772 37.0449 26.1038 37.2143C26.1082 37.2426 26.1137 37.2706 26.1206 37.2984C26.1555 37.442 26.1848 37.5942 26.2082 37.751C26.2115 37.773 26.2153 37.795 26.2203 37.8167C26.4087 38.6956 26.6638 39.7244 27.3071 40.8206C28.0165 42.0804 28.974 43.2027 30.0768 44.0665C30.0806 44.0695 30.0847 44.0728 30.0888 44.0758C31.4451 45.1064 33.0057 45.8092 34.7284 46.1654C34.939 46.2204 35.1321 46.2333 35.276 46.2432C35.3381 46.2473 35.4021 46.2517 35.4373 46.2577C35.4482 46.2596 35.4592 46.2613 35.4702 46.2629L35.769 46.3052C35.913 46.3335 36.117 46.3629 36.3519 46.3437C36.4705 46.3387 36.6095 46.3442 36.7559 46.3497C36.8789 46.3541 37.0086 46.3591 37.1434 46.3591C37.3321 46.3591 37.5315 46.3497 37.7394 46.3168C38.7546 46.2819 39.7093 46.0039 40.6786 45.6969C40.7151 45.6853 40.7513 45.6716 40.7865 45.6559C40.9785 45.5714 41.1787 45.4922 41.3822 45.4211C41.3913 45.4181 41.4001 45.4148 41.4091 45.4112C41.6135 45.3335 41.7857 45.236 41.9239 45.1574C41.9986 45.1149 42.0689 45.0748 42.1238 45.05C42.1304 45.047 42.1367 45.044 42.1433 45.041L42.4809 44.8798C42.5303 44.8561 42.5778 44.8287 42.6229 44.7976L42.9316 44.5859C42.9376 44.5818 42.9434 44.5776 42.9494 44.5735C43.0085 44.5312 43.087 44.4837 43.1705 44.4334C43.3026 44.3535 43.4523 44.2632 43.6059 44.1464C44.4224 43.5405 45.2074 42.7731 46.0061 41.8003C46.0152 41.789 46.0242 41.7775 46.0333 41.7657C46.6642 40.9283 47.2119 39.9422 47.7071 38.7516C47.7128 38.7379 47.7183 38.7238 47.7235 38.7098C48.0828 37.7307 48.3209 36.6293 48.4728 35.2442C48.4764 35.2115 48.4783 35.1788 48.4789 35.1461C48.5014 33.73 48.4022 32.5891 48.1668 31.5555C48.1635 31.5415 48.16 31.5278 48.1564 31.5138C47.8029 30.2108 47.3621 29.1061 46.8081 28.1371C46.8015 28.1256 46.7944 28.1138 46.7872 28.1025C46.0704 26.9528 45.3263 26.0151 44.5133 25.2359C44.3647 25.0906 44.2151 24.9706 44.0829 24.8643C43.9956 24.7943 43.9132 24.7281 43.8456 24.6663C43.8399 24.6611 43.8341 24.6559 43.8283 24.6509L43.5081 24.3697C43.4713 24.3372 43.432 24.3073 43.3908 24.2804L43.0384 24.0494C43.0329 24.0456 43.0274 24.042 43.0219 24.0384C42.9549 23.9964 42.8766 23.9387 42.7943 23.8775C42.6443 23.7668 42.4743 23.641 42.2691 23.5292C42.2617 23.5254 42.2545 23.5215 42.2469 23.5177C42.0211 23.4018 41.7937 23.276 41.5706 23.1439C41.5426 23.1271 41.5138 23.1117 41.4844 23.098C40.5247 22.644 39.4008 22.1441 38.1654 21.9362C37.7518 21.8189 37.3519 21.781 36.9965 21.7472C36.8191 21.7307 36.6512 21.7148 36.4958 21.6906C36.3033 21.6541 36.1047 21.6423 35.8748 21.6547L35.4963 21.6571C35.4861 21.6574 35.476 21.6577 35.4658 21.658C35.4005 21.6604 35.315 21.6566 35.2244 21.6525C35.0494 21.6445 34.8336 21.6349 34.5998 21.6621C32.4355 21.814 30.3163 22.4591 28.4703 23.5287C28.4675 23.5303 28.4645 23.532 28.4618 23.5336C26.8814 24.4688 25.4424 25.7732 24.2999 27.3058C23.2328 28.6969 22.6574 30.1248 22.2751 31.2139C22.2699 31.2287 22.2652 31.2433 22.2605 31.2584C22.1875 31.5006 22.1073 31.7464 22.0227 31.9892C22.0161 32.0082 22.01 32.0271 22.0045 32.0464C21.948 32.2438 21.9167 32.4218 21.8886 32.5786C21.8741 32.6605 21.8604 32.7379 21.8461 32.7984C21.845 32.803 21.8439 32.808 21.8428 32.8127L21.7087 33.4166C21.6626 33.6174 21.6519 33.7929 21.6442 33.9217C21.6417 33.9618 21.639 34.0077 21.6362 34.0272C21.6343 34.0415 21.6327 34.056 21.6313 34.0703C21.5772 34.6487 21.5299 34.9662 21.5297 34.9695C21.5244 35.0039 21.5211 35.0382 21.5195 35.0723V35.0725C21.5184 35.0934 21.519 35.1143 21.519 35.1349C21.5192 35.1503 21.5181 35.1651 21.519 35.1802C21.519 35.1835 21.5327 35.4991 21.5253 36.0841C21.5253 36.0987 21.5253 36.1135 21.5258 36.1283C21.5264 36.1489 21.5242 36.1962 21.5225 36.2376C21.517 36.3678 21.5093 36.545 21.5338 36.7488L21.6038 37.3709C21.6044 37.3753 21.6049 37.3797 21.6052 37.3841C21.6132 37.4472 21.6189 37.5277 21.625 37.6129C21.6365 37.7755 21.6497 37.9595 21.6851 38.1644C21.6884 38.1841 21.6923 38.2039 21.6969 38.2234C21.7552 38.4728 21.8098 38.7329 21.8598 38.996C21.8625 39.0109 21.8656 39.0257 21.8691 39.0405C22.1427 40.2045 22.58 41.7423 23.5402 43.3186C24.5825 45.0786 25.9802 46.6409 27.5829 47.8367C27.5853 47.8387 27.5881 47.8409 27.5905 47.8425C27.9589 48.1122 28.3406 48.3654 28.7339 48.6025C30.6582 49.4308 32.7764 49.8906 35 49.8906C40.3105 49.8906 45.0204 47.2718 47.9073 43.2582Z" fill="white"/>
</svg>
