<svg width="67" height="67" viewBox="0 0 67 67" fill="none" xmlns="http://www.w3.org/2000/svg">
<circle cx="33.5" cy="33.5" r="32.5" stroke="white" stroke-width="2"/>
<path d="M42.9583 50H24.5417C22.5881 50 21 48.4105 21 46.4583V23.7917C21 21.8395 22.5881 20.25 24.5417 20.25H27.375C27.766 20.25 28.0833 20.5673 28.0833 20.9583C28.0833 21.3493 27.766 21.6667 27.375 21.6667H24.5417C23.3701 21.6667 22.4167 22.6201 22.4167 23.7917V46.4583C22.4167 47.6299 23.3701 48.5833 24.5417 48.5833H42.9583C44.1299 48.5833 45.0833 47.6299 45.0833 46.4583V23.7917C45.0833 22.6201 44.1299 21.6667 42.9583 21.6667H40.125C39.734 21.6667 39.4167 21.3493 39.4167 20.9583C39.4167 20.5673 39.734 20.25 40.125 20.25H42.9583C44.9119 20.25 46.5 21.8395 46.5 23.7917V46.4583C46.5 48.4105 44.9119 50 42.9583 50Z" fill="white"/>
<path d="M38.7082 24.5H28.7915C27.6199 24.5 26.6665 23.5466 26.6665 22.375V19.5417C26.6665 19.1507 26.9838 18.8333 27.3748 18.8333H30.279C30.6077 17.2183 32.0399 16 33.7498 16C35.4598 16 36.892 17.2183 37.2207 18.8333H40.1248C40.5158 18.8333 40.8332 19.1507 40.8332 19.5417V22.375C40.8332 23.5466 39.8798 24.5 38.7082 24.5ZM28.0832 20.25V22.375C28.0832 22.766 28.4019 23.0833 28.7915 23.0833H38.7082C39.0978 23.0833 39.4165 22.766 39.4165 22.375V20.25H36.5832C36.1922 20.25 35.8748 19.9327 35.8748 19.5417C35.8748 18.3701 34.9214 17.4167 33.7498 17.4167C32.5783 17.4167 31.6248 18.3701 31.6248 19.5417C31.6248 19.9327 31.3075 20.25 30.9165 20.25H28.0832Z" fill="white"/>
<path d="M41.5417 30.1667H25.9583C25.5673 30.1667 25.25 29.8493 25.25 29.4583C25.25 29.0673 25.5673 28.75 25.9583 28.75H41.5417C41.9327 28.75 42.25 29.0673 42.25 29.4583C42.25 29.8493 41.9327 30.1667 41.5417 30.1667Z" fill="white"/>
<path d="M41.5417 34.4167H25.9583C25.5673 34.4167 25.25 34.0993 25.25 33.7083C25.25 33.3173 25.5673 33 25.9583 33H41.5417C41.9327 33 42.25 33.3173 42.25 33.7083C42.25 34.0993 41.9327 34.4167 41.5417 34.4167Z" fill="white"/>
<path d="M41.5417 38.6667H25.9583C25.5673 38.6667 25.25 38.3493 25.25 37.9583C25.25 37.5673 25.5673 37.25 25.9583 37.25H41.5417C41.9327 37.25 42.25 37.5673 42.25 37.9583C42.25 38.3493 41.9327 38.6667 41.5417 38.6667Z" fill="white"/>
<path d="M41.5417 42.9167H25.9583C25.5673 42.9167 25.25 42.5993 25.25 42.2083C25.25 41.8173 25.5673 41.5 25.9583 41.5H41.5417C41.9327 41.5 42.25 41.8173 42.25 42.2083C42.25 42.5993 41.9327 42.9167 41.5417 42.9167Z" fill="white"/>
</svg>
