<svg width="67" height="67" viewBox="0 0 67 67" fill="none" xmlns="http://www.w3.org/2000/svg">
<circle cx="33.5" cy="33.5" r="32.5" stroke="white" stroke-width="2"/>
<g clip-path="url(#clip0)">
<path d="M19.8048 44.6484C19.9352 43.8518 20.314 43.1543 20.8542 42.6277C20.4785 42.3839 20.1677 42.0299 19.9736 41.5863C19.7166 40.999 19.7069 40.3482 19.9463 39.7536C20.1857 39.1589 20.6438 38.6963 21.2359 38.451L23.881 37.3555C24.461 37.1151 24.8359 36.5542 24.8359 35.9263V34.2858C24.8359 32.6622 25.4521 31.1798 26.4627 30.06C26.4622 30.0491 26.4611 30.0384 26.4611 30.0274V25.7032C26.4611 25.3149 26.776 25 27.1642 25C27.5525 25 27.8674 25.3149 27.8674 25.7032V28.894C28.7175 28.3746 29.6994 28.0507 30.7502 27.9847V27.1473C29.8616 26.4682 29.2868 25.3982 29.2868 24.196V23.0004C29.2868 22.6121 29.6017 22.2973 29.99 22.2973H30.8681C32.0917 22.2973 33.0872 21.3018 33.0872 20.0781C33.0872 19.6899 33.4021 19.375 33.7904 19.375C34.1786 19.375 34.4935 19.6899 34.4935 20.0781C34.4935 20.3886 34.4541 20.69 34.3804 20.9778C34.5897 21.4807 35.0725 21.8044 35.6194 21.8044H36.0103C36.3986 21.8044 36.7135 22.1193 36.7135 22.5075V24.196C36.7135 25.3982 36.1387 26.4682 35.2501 27.1473V27.9847C36.3009 28.0507 37.2828 28.3746 38.1329 28.894V22.5391C38.1329 19.7089 35.8303 17.4063 33.0001 17.4063C31.2001 17.4063 29.5629 18.3237 28.6208 19.8603C28.4177 20.1913 27.9849 20.2951 27.6537 20.0922C27.3227 19.8891 27.2189 19.4562 27.4218 19.1252C28.6218 17.1683 30.7071 16 33.0001 16C36.6058 16 39.5392 18.9334 39.5392 22.5391V30.0274C39.5392 30.0384 39.5381 30.0491 39.5376 30.06C40.5482 31.1798 41.1644 32.6622 41.1644 34.2858V35.9263C41.1644 36.5542 41.5393 37.1151 42.1193 37.3554L44.7644 38.4511C45.3565 38.6963 45.8146 39.1589 46.054 39.7536C46.2934 40.3482 46.2837 40.9991 46.0267 41.5863C45.8325 42.0299 45.5218 42.384 45.1462 42.6277C45.6864 43.1544 46.0651 43.8519 46.1955 44.6484C46.515 46.6006 45.2445 48.4269 43.3029 48.8062L41.5423 49.1502C41.5811 49.318 41.6017 49.4913 41.6017 49.6674C41.6017 50.3668 41.292 51.023 40.7522 51.4677C40.33 51.8153 39.8081 52 39.2724 52C39.1229 52 38.9721 51.9856 38.8224 51.9563L33.0002 50.8189L27.1779 51.9563C27.028 51.9856 26.8775 52 26.7279 52C26.1922 52 25.6702 51.8153 25.2481 51.4677C24.7083 51.0231 24.3986 50.3669 24.3986 49.6674C24.3986 49.4924 24.4188 49.3189 24.4573 49.15L22.6974 48.8062C20.7558 48.427 19.4853 46.6006 19.8048 44.6484V44.6484ZM28.5329 43.0044L33.0001 44.736L37.4673 43.0044H28.5329ZM37.8011 41.5981H39.9453C39.0982 41.1858 38.3722 40.6016 37.8011 39.8974V41.5981ZM28.1992 39.8973C27.6281 40.6015 26.902 41.1858 26.0549 41.5981H28.1992V39.8973ZM24.4191 38.6546L21.7741 39.7502C21.5338 39.8497 21.348 40.0375 21.2508 40.2788C21.1537 40.5201 21.1576 40.7842 21.2619 41.0225C21.4713 41.5009 22.0148 41.7232 22.4995 41.5285L25.1116 40.4795C26.7618 39.8167 27.8979 38.3491 28.1472 36.6293H26.1576C25.9382 37.5305 25.304 38.2881 24.4191 38.6546V38.6546ZM35.3071 23.1932C34.6707 23.1221 34.0925 22.835 33.6575 22.3909C32.992 23.1923 31.9887 23.7035 30.868 23.7035H30.693V24.196C30.693 25.4682 31.7279 26.5031 33.0001 26.5031C34.2723 26.5031 35.3072 25.4682 35.3072 24.196V23.1932H35.3071ZM33.0001 27.9093C32.7099 27.9093 32.4276 27.8747 32.1564 27.8114V28.7927C32.1564 29.258 32.5349 29.6365 33.0001 29.6365C33.4654 29.6365 33.8439 29.258 33.8439 28.7927V27.8114C33.5726 27.8747 33.2904 27.9093 33.0001 27.9093V27.9093ZM35.1692 29.3895C34.907 30.3413 34.0341 31.0427 33.0001 31.0427C31.9661 31.0427 31.0932 30.3413 30.831 29.3895C28.2731 29.5545 26.2421 31.6868 26.2421 34.2858V35.2231H28.1992V34.5898C28.1992 34.2015 28.514 33.8867 28.9023 33.8867C29.2906 33.8867 29.6054 34.2015 29.6054 34.5898V41.5981H36.3949V34.5898C36.3949 34.2015 36.7097 33.8867 37.098 33.8867C37.4863 33.8867 37.8011 34.2015 37.8011 34.5898V35.2231H39.7582V34.2858C39.7581 31.6868 37.7271 29.5545 35.1692 29.3895V29.3895ZM44.7495 40.2788C44.6523 40.0375 44.4665 39.8497 44.2262 39.7502L41.5812 38.6546C40.6963 38.2881 40.0621 37.5305 39.8427 36.6293H37.8532C38.1025 38.3491 39.2385 39.8167 40.8888 40.4795L43.5009 41.5285C43.9856 41.723 44.5291 41.5008 44.7385 41.0225C44.8427 40.7842 44.8466 40.5201 44.7495 40.2788V40.2788ZM44.8076 44.8755C44.6303 43.7913 43.7041 43.0044 42.6054 43.0044H41.3583L34.9456 45.4902L40.1125 47.493C40.3486 47.5845 40.5635 47.7141 40.7528 47.8716L43.0333 47.4261C44.2242 47.1934 45.0036 46.0731 44.8076 44.8755ZM25.8048 49.6674C25.8048 49.9451 25.9277 50.2056 26.1421 50.3822C26.3563 50.5587 26.6355 50.6295 26.9082 50.5762L29.3329 50.1025L25.839 49.4199C25.8167 49.5002 25.8048 49.5834 25.8048 49.6674ZM22.967 47.426L25.5989 47.9402C25.6048 47.9413 25.6107 47.9425 25.6166 47.9437L39.092 50.5762C39.3648 50.6293 39.6439 50.5587 39.8581 50.3822C40.0725 50.2056 40.1954 49.9451 40.1954 49.6674C40.1954 49.2881 39.9578 48.9412 39.6042 48.8041L24.642 43.0044H23.3949C22.2962 43.0044 21.37 43.7913 21.1927 44.8756C20.9966 46.0731 21.776 47.1934 22.967 47.426V47.426Z" fill="white"/>
<path d="M27.8672 22.5391C27.8672 22.724 27.792 22.9054 27.6612 23.0361C27.5304 23.1669 27.349 23.2422 27.1641 23.2422C26.9791 23.2422 26.7977 23.167 26.667 23.0361C26.5362 22.9054 26.4609 22.724 26.4609 22.5391C26.4609 22.3541 26.5362 22.1727 26.667 22.042C26.7977 21.9112 26.9791 21.8359 27.1641 21.8359C27.349 21.8359 27.5304 21.9111 27.6612 22.042C27.792 22.1728 27.8672 22.3541 27.8672 22.5391Z" fill="white"/>
</g>
<defs>
<clipPath id="clip0">
<rect width="36" height="36" fill="white" transform="matrix(-1 0 0 1 51 16)"/>
</clipPath>
</defs>
</svg>
