<svg width="67" height="67" viewBox="0 0 67 67" fill="none" xmlns="http://www.w3.org/2000/svg">
<circle cx="33.5" cy="33.5" r="32.5" stroke="white" stroke-width="2"/>
<path d="M26.1337 32.1177C23.557 32.1177 21.5218 34.316 21.7193 36.8847L22.1552 42.5512C22.315 44.6286 24.0469 46.2353 26.1337 46.2353C28.2173 46.2353 29.9521 44.6318 30.1122 42.5511L30.548 36.8846C30.7456 34.3157 28.7101 32.1177 26.1337 32.1177ZM28.6713 36.7403L28.2354 42.4068C28.1514 43.4981 27.2283 44.353 26.1337 44.353C25.0392 44.353 24.116 43.4981 24.032 42.4067L23.5961 36.7402C23.4829 35.2692 24.641 34 26.1337 34C27.6092 34 28.7857 35.252 28.6713 36.7403Z" fill="white"/>
<path d="M39.8666 32.1177C37.29 32.1177 35.2547 34.3158 35.4522 36.8847L35.8881 42.5512C36.0479 44.6287 37.7797 46.2354 39.8666 46.2354C41.9502 46.2354 43.685 44.6319 43.8451 42.5512L44.281 36.8847C44.4785 34.3155 42.4429 32.1177 39.8666 32.1177ZM42.4041 36.7403L41.9682 42.4068C41.8843 43.4981 40.9611 44.353 39.8666 44.353C38.7721 44.353 37.8489 43.4981 37.7649 42.4067L37.3291 36.7403C37.2159 35.2689 38.3743 34 39.8666 34C41.3424 34 42.5186 35.2525 42.4041 36.7403Z" fill="white"/>
<path d="M45.1098 18H20.8902C18.7451 18 17 19.7451 17 21.8902V46.1098C17 48.2549 18.7451 50 20.8902 50H45.1098C47.2548 50 49 48.2549 49 46.1098V21.8902C49 19.7451 47.2548 18 45.1098 18ZM47.1176 46.1098C47.1176 47.2169 46.2169 48.1176 45.1098 48.1176H33.9412V41.5294H32.0588V48.1176H20.8902C19.7831 48.1176 18.8824 47.2169 18.8824 46.1098V21.8902C18.8824 20.7831 19.7831 19.8824 20.8902 19.8824H45.1098C46.2169 19.8824 47.1176 20.7831 47.1176 21.8902V46.1098Z" fill="white"/>
<path d="M41.4046 29.1776C40.8776 24.9515 37.2643 21.7646 32.9997 21.7646C28.7351 21.7646 25.1218 24.9515 24.5948 29.1776L24.4629 30.2352H31.3073C31.4544 30.0156 31.643 28.6666 32.9997 28.6666C34.3508 28.6666 34.5712 30.0547 34.692 30.2352H41.5365L41.4046 29.1776ZM35.8931 28.3529C34.5382 26.2605 31.459 26.2637 30.1062 28.3529H26.6839C27.4999 25.6073 30.0493 23.647 32.9997 23.647C35.95 23.647 38.4995 25.6073 39.3154 28.3529H35.8931Z" fill="white"/>
<path d="M43.353 21.7646H45.2354V23.647H43.353V21.7646Z" fill="white"/>
<path d="M20.7646 21.7646H22.647V23.647H20.7646V21.7646Z" fill="white"/>
</svg>
